<svg width="37" height="36" viewBox="0 0 37 36" fill="none" xmlns="http://www.w3.org/2000/svg">
<path fill-rule="evenodd" clip-rule="evenodd" d="M16.6645 19.5495C16.6645 18.6615 13.117 18.0915 10.7755 15.8745C8.3995 13.629 9.508 8.21246 9.508 8.21246C9.508 8.21246 10.87 9.26996 12.6745 10.3665C14.5645 11.5155 18.058 13.4685 16.6645 19.5495Z" fill="#C1A672"/>
<path fill-rule="evenodd" clip-rule="evenodd" d="M18.31 19.5495C18.31 18.6615 21.856 18.0915 24.199 15.8745C26.5735 13.629 25.465 8.21246 25.465 8.21246C25.465 8.21246 24.103 9.26996 22.3 10.3665C20.41 11.5155 16.915 13.4685 18.31 19.5495Z" fill="#D2B879"/>
<path fill-rule="evenodd" clip-rule="evenodd" d="M16.6645 27.7995C16.6645 26.9115 13.117 26.343 10.7755 24.1245C8.3995 21.879 9.508 16.4625 9.508 16.4625C9.508 16.4625 10.87 17.5185 12.6745 18.6165C14.5645 19.7655 18.058 21.7185 16.6645 27.7995Z" fill="#B19662"/>
<path fill-rule="evenodd" clip-rule="evenodd" d="M18.31 27.7995C18.31 26.9115 21.856 26.343 24.199 24.1245C26.5735 21.879 25.465 16.4625 25.465 16.4625C25.465 16.4625 24.103 17.5185 22.3 18.6165C20.41 19.7655 16.915 21.7185 18.31 27.7995ZM16.6645 35.9685C16.6645 35.082 13.117 34.512 10.7755 32.295C8.3995 30.0495 9.508 24.633 9.508 24.633C9.508 24.633 10.87 25.689 12.6745 26.7855C14.5645 27.9345 18.058 29.889 16.6645 35.9685Z" fill="#C3A76D"/>
<path fill-rule="evenodd" clip-rule="evenodd" d="M18.31 35.9685C18.31 35.082 21.856 34.512 24.199 32.295C26.5735 30.0495 25.465 24.633 25.465 24.633C25.465 24.633 24.103 25.689 22.3 26.7855C20.41 27.9345 16.915 29.889 18.31 35.9685Z" fill="#D2B879"/>
<mask id="mask0_4_1153" style="mask-type:luminance" maskUnits="userSpaceOnUse" x="14" y="0" width="7" height="13">
<path d="M14.2555 0.359985H20.3395V12.5835H14.2555V0.359985Z" fill="white"/>
</mask>
<g mask="url(#mask0_4_1153)">
<path fill-rule="evenodd" clip-rule="evenodd" d="M19.063 3.04046C18.2785 2.12546 17.2975 0.358459 17.2975 0.358459C17.2975 0.358459 16.318 2.12546 15.535 3.04046C14.749 3.95546 14.095 6.11246 14.29 7.35446C14.485 8.59646 15.532 10.752 17.296 12.5835C19.063 10.7535 20.11 8.59646 20.305 7.35446C20.5 6.11246 19.846 3.95546 19.063 3.04046Z" fill="#D2B879"/>
</g>
<path fill-rule="evenodd" clip-rule="evenodd" d="M17.2975 0.359985C17.2975 0.359985 16.318 2.12399 15.5335 3.04049C14.749 3.95549 14.095 6.11249 14.2915 7.35299C14.4865 8.59499 15.5335 10.752 17.2975 12.582" fill="#C3A76D"/>
</svg>
