<svg width="36" height="36" viewBox="0 0 36 36" fill="none" xmlns="http://www.w3.org/2000/svg">
<path fill-rule="evenodd" clip-rule="evenodd" d="M26.427 25.0005L28.452 34.623L18.8175 33.966L15.7875 26.496L17.7555 23.217L26.427 25.0005Z" fill="#B19662"/>
<mask id="mask0_4_1002" style="mask-type:luminance" maskUnits="userSpaceOnUse" x="4" y="0" width="28" height="36">
<path d="M4.5 0.359985H31.011V35.97H4.5V0.359985Z" fill="white"/>
</mask>
<g mask="url(#mask0_4_1002)">
<path fill-rule="evenodd" clip-rule="evenodd" d="M28.2345 33.588C26.0085 33.381 24.5295 33.624 24.5055 33.6285L23.7855 33.7545L23.6475 33.0375C23.1615 30.5295 22.194 28.7775 20.772 27.825C19.182 26.763 17.5245 27.0855 17.508 27.0885L17.1975 25.6335C17.2905 25.6125 19.4505 25.1685 21.57 26.568C23.2095 27.6525 24.3495 29.502 24.9615 32.0745C25.5975 32.0175 26.6235 31.9695 27.9135 32.061L23.475 10.965C23.475 10.965 25.467 7.53599 28.3365 6.89999L29.373 3.31049H21.321L20.442 0.359985C20.442 0.359985 14.064 13.9125 8.2425 31.935C6.2505 31.932 4.575 29.22 4.575 29.22C4.575 29.22 3.54 35.9685 9.12 35.9685H31.011C31.011 35.9685 31.0905 33.966 28.236 33.5865" fill="#D2B879"/>
</g>
<path fill-rule="evenodd" clip-rule="evenodd" d="M25.149 4.9455H22.926L22.6035 5.9205C23.037 5.706 23.7435 5.529 24.9135 5.529L25.149 4.9455Z" fill="#B19662"/>
<path fill-rule="evenodd" clip-rule="evenodd" d="M22.056 4.9455L21.5775 6.675H21.927C21.927 6.675 21.9315 6.252 22.6035 5.919L22.926 4.944L22.056 4.9455Z" fill="#9D8453"/>
<mask id="mask1_4_1002" style="mask-type:luminance" maskUnits="userSpaceOnUse" x="4" y="0" width="20" height="36">
<path d="M4.5 0.359985H23.4675V35.97H4.5V0.359985Z" fill="white"/>
</mask>
<g mask="url(#mask1_4_1002)">
<path fill-rule="evenodd" clip-rule="evenodd" d="M22.926 4.94399L23.4675 3.30899H21.3195L20.442 0.35849C20.442 0.35849 14.064 13.9125 8.2425 31.935C6.2505 31.932 4.575 29.22 4.575 29.22C4.575 29.22 3.54 35.9685 9.12 35.9685H12.6495L17.5935 21.0435C17.0878 20.9546 16.6296 20.6905 16.2994 20.2974C15.9691 19.9043 15.7879 19.4074 15.7875 18.894V17.8605C15.7881 17.4598 15.8989 17.0671 16.1077 16.7251C16.3165 16.3832 16.6153 16.1052 16.9714 15.9216C17.3275 15.7379 17.7272 15.6557 18.1268 15.6839C18.5265 15.7122 18.9107 15.8497 19.2375 16.0815L22.6035 5.91749C21.9315 6.24899 21.9285 6.67349 21.9285 6.67349H21.5775L22.056 4.94249L22.926 4.94399Z" fill="#BC9E68"/>
</g>
<path fill-rule="evenodd" clip-rule="evenodd" d="M17.973 21.0795C19.179 21.0795 20.157 20.103 20.157 18.897V17.862C20.157 17.127 19.7925 16.479 19.236 16.083L17.595 21.045C17.718 21.0675 17.844 21.0795 17.973 21.0795Z" fill="#B19662"/>
<path fill-rule="evenodd" clip-rule="evenodd" d="M15.7875 17.8635V18.8955C15.7875 19.9725 16.5675 20.865 17.5935 21.045L19.2375 16.0845C18.9107 15.8527 18.5265 15.7151 18.1268 15.6869C17.7272 15.6587 17.3275 15.7409 16.9714 15.9246C16.6153 16.1082 16.3165 16.3862 16.1077 16.7281C15.8989 17.0701 15.7881 17.4628 15.7875 17.8635Z" fill="#BC9E68"/>
<path fill-rule="evenodd" clip-rule="evenodd" d="M15.7875 17.8635V18.8955C15.7875 19.9725 16.5675 20.865 17.5935 21.045L19.2375 16.0845C18.9107 15.8527 18.5265 15.7151 18.1268 15.6869C17.7272 15.6587 17.3275 15.7409 16.9714 15.9246C16.6153 16.1082 16.3165 16.3862 16.1077 16.7281C15.8989 17.0701 15.7881 17.4628 15.7875 17.8635ZM15.876 22.9785C15.8659 23.242 15.7541 23.4914 15.564 23.6743C15.374 23.8572 15.1205 23.9594 14.8568 23.9594C14.593 23.9594 14.3395 23.8572 14.1495 23.6743C13.9594 23.4914 13.8476 23.242 13.8375 22.9785V22.497C13.8375 22.2265 13.945 21.967 14.1363 21.7757C14.3275 21.5844 14.587 21.477 14.8575 21.477C15.128 21.477 15.3875 21.5844 15.5788 21.7757C15.77 21.967 15.8775 22.2265 15.8775 22.497V22.977L15.876 22.9785Z" fill="#9D8453"/>
<path fill-rule="evenodd" clip-rule="evenodd" d="M18.84 23.3745C18.84 23.5326 18.7772 23.6843 18.6654 23.7961C18.5535 23.9079 18.4019 23.9708 18.2437 23.9708C18.0856 23.9708 17.934 23.9079 17.8221 23.7961C17.7103 23.6843 17.6475 23.5326 17.6475 23.3745V23.0925C17.6475 22.9346 17.7102 22.7831 17.8219 22.6714C17.9336 22.5597 18.0851 22.497 18.243 22.497C18.4009 22.497 18.5524 22.5597 18.6641 22.6714C18.7758 22.7831 18.8385 22.9346 18.8385 23.0925V23.3745H18.84Z" fill="#B19662"/>
<path fill-rule="evenodd" clip-rule="evenodd" d="M22.809 20.166L24.1215 26.3655C24.2884 27.1551 24.6875 27.8768 25.2675 28.4381C25.8474 28.9993 26.5818 29.3745 27.3765 29.5155L24.525 15.96C23.8514 16.4092 23.328 17.0501 23.0224 17.7999C22.7167 18.5496 22.6414 19.3738 22.809 20.166Z" fill="#E4E3D7"/>
</svg>
