<svg width="37" height="36" viewBox="0 0 37 36" fill="none" xmlns="http://www.w3.org/2000/svg">
<path fill-rule="evenodd" clip-rule="evenodd" d="M4.987 0.947998H12.5665L14.461 20.8905H3.0925L4.987 0.947998Z" fill="#FFCE28"/>
<path fill-rule="evenodd" clip-rule="evenodd" d="M4.987 0.947998H8.7775V20.8425H3.0925L4.987 0.947998Z" fill="#ECB661"/>
<path d="M9.724 0H4.0405C3.51693 0 3.0925 0.424098 3.0925 0.94725C3.0925 1.4704 3.51693 1.8945 4.0405 1.8945H9.724C10.2476 1.8945 10.672 1.4704 10.672 0.94725C10.672 0.424098 10.2476 0 9.724 0Z" fill="#FFCE28"/>
<path fill-rule="evenodd" clip-rule="evenodd" d="M8.7775 -1.28993e-05H13.522C13.6496 -0.00509022 13.7768 0.0156511 13.8962 0.0609669C14.0155 0.106283 14.1245 0.175239 14.2166 0.2637C14.3086 0.352161 14.3819 0.458304 14.4319 0.575761C14.4819 0.693218 14.5077 0.81957 14.5077 0.947237C14.5077 1.0749 14.4819 1.20126 14.4319 1.31871C14.3819 1.43617 14.3086 1.54231 14.2166 1.63077C14.1245 1.71923 14.0155 1.78819 13.8962 1.83351C13.7768 1.87882 13.6496 1.89956 13.522 1.89449H8.7775V-1.28993e-05Z" fill="#ECB661"/>
<path fill-rule="evenodd" clip-rule="evenodd" d="M0.25 22.161L18.25 12.315V36H0.25V22.161ZM8.776 24.231V26.928C8.776 27.747 9.445 28.4205 10.27 28.4205H12.967C13.3627 28.4197 13.742 28.2623 14.022 27.9826C14.302 27.7029 14.4598 27.3237 14.461 26.928V24.231C14.4602 23.835 14.3026 23.4555 14.0225 23.1755C13.7425 22.8955 13.363 22.7378 12.967 22.737H10.27C9.87401 22.7378 9.49447 22.8955 9.21446 23.1755C8.93445 23.4555 8.77679 23.835 8.776 24.231ZM18.25 22.161L36.25 12.315V36H18.25V22.161ZM26.776 24.231V26.928C26.776 27.747 27.445 28.4205 28.27 28.4205H30.967C31.3627 28.4197 31.7421 28.2623 32.022 27.9826C32.302 27.7029 32.4598 27.3237 32.461 26.928V24.231C32.4602 23.835 32.3025 23.4555 32.0225 23.1755C31.7425 22.8955 31.363 22.7378 30.967 22.737H28.27C27.874 22.7378 27.4945 22.8955 27.2145 23.1755C26.9345 23.4555 26.7768 23.835 26.776 24.231Z" fill="#52738A"/>
<path fill-rule="evenodd" clip-rule="evenodd" d="M18.25 22.1865L20.1445 21.126L22.039 36H18.25V22.1865Z" fill="#3B566E"/>
</svg>
