<svg width="37" height="36" viewBox="0 0 37 36" fill="none" xmlns="http://www.w3.org/2000/svg">
<path fill-rule="evenodd" clip-rule="evenodd" d="M26.8355 14.9055L31.2575 26.3895C31.2575 30.4575 25.4825 33.756 18.3575 33.756C11.234 33.756 5.46051 30.4575 5.46051 26.391L9.88251 14.9055H26.8355Z" fill="#47658E"/>
<path fill-rule="evenodd" clip-rule="evenodd" d="M9.88251 14.9055L5.46051 26.3895C5.46051 30.4575 11.2355 33.756 18.359 33.756V14.9055H9.88251Z" fill="#2A456D"/>
<path fill-rule="evenodd" clip-rule="evenodd" d="M25.865 32.22L21.26 20.8845L23.0975 20.1375L27.704 31.4745L25.865 32.22Z" fill="#2E4A74"/>
<mask id="mask0_4_1051" style="mask-type:luminance" maskUnits="userSpaceOnUse" x="0" y="14" width="37" height="14">
<path d="M0.507507 14.2335H36.257V27.3075H0.507507V14.2335Z" fill="white"/>
</mask>
<g mask="url(#mask0_4_1051)">
<path fill-rule="evenodd" clip-rule="evenodd" d="M36.251 14.2335V15.9495C36.293 16.2915 36.116 16.641 35.7035 16.9005L19.742 26.9565C18.9935 27.426 17.7695 27.426 17.0225 26.9565L1.06101 16.9005C0.64701 16.641 0.47151 16.2915 0.51351 15.9495L0.50751 15.5085V14.2335H36.251Z" fill="#5273A0"/>
</g>
<path fill-rule="evenodd" clip-rule="evenodd" d="M18.359 14.232H0.508973V15.507L0.513473 15.948C0.471473 16.29 0.648473 16.641 1.06097 16.899L17.0225 26.955C17.39 27.186 17.8745 27.303 18.3575 27.306V14.232H18.359Z" fill="#47658E"/>
<path fill-rule="evenodd" clip-rule="evenodd" d="M17 25.461C17.747 25.9395 18.9695 25.9395 19.715 25.461L35.657 15.276C36.404 14.799 36.404 14.019 35.657 13.542L19.7165 3.35699C18.9695 2.88149 17.747 2.88149 17.0015 3.35699L1.05949 13.5435C0.313991 14.0205 0.313991 14.8005 1.05949 15.279L17.0015 25.4625L17 25.461Z" fill="#47658E"/>
<path fill-rule="evenodd" clip-rule="evenodd" d="M17 25.461L1.06102 15.276C0.315517 14.799 0.315517 14.019 1.06102 13.542L17.003 3.357C17.3765 3.12 17.867 3 18.3605 3V25.8195C17.867 25.8195 17.3765 25.6995 17.003 25.461" fill="#2E4A74"/>
<path fill-rule="evenodd" clip-rule="evenodd" d="M15.383 14.409C15.383 15.2325 16.715 15.8985 18.359 15.8985C20.003 15.8985 21.335 15.2325 21.335 14.409C21.335 13.587 20.003 12.921 18.359 12.921C16.715 12.921 15.383 13.587 15.383 14.409Z" fill="#EC9E46"/>
<path fill-rule="evenodd" clip-rule="evenodd" d="M21.335 14.409C21.527 14.94 20.7005 15.456 19.7795 15.7095C19.028 15.288 18.5675 14.7285 18.5675 14.112C18.5675 13.7025 18.7715 13.3155 19.1285 12.978C19.9025 13.5735 21.146 13.884 21.335 14.409Z" fill="#FFCE01"/>
<mask id="mask1_4_1051" style="mask-type:luminance" maskUnits="userSpaceOnUse" x="25" y="24" width="6" height="10">
<path d="M25.304 24.828H30.32V33.7575H25.304V24.828Z" fill="white"/>
</mask>
<g mask="url(#mask1_4_1051)">
<path fill-rule="evenodd" clip-rule="evenodd" d="M27.785 24.828L25.3025 32.268L27.7835 33.7575L30.32 32.2695L27.785 24.828Z" fill="#EC9E46"/>
</g>
<mask id="mask2_4_1051" style="mask-type:luminance" maskUnits="userSpaceOnUse" x="27" y="24" width="4" height="10">
<path d="M27.785 24.828H30.32V33.7575H27.785V24.828Z" fill="white"/>
</mask>
<g mask="url(#mask2_4_1051)">
<path fill-rule="evenodd" clip-rule="evenodd" d="M27.785 33.7575V24.828L30.32 32.268L27.785 33.7575Z" fill="#FFCE01"/>
</g>
<path fill-rule="evenodd" clip-rule="evenodd" d="M26.792 25.323H28.7765V19.866L19.3505 13.914L18.5405 15.789L26.792 20.859V25.323Z" fill="#FFCE01"/>
<path fill-rule="evenodd" clip-rule="evenodd" d="M17.831 14.97L18.3035 14.409L27.7295 20.364V24.828H26.792V20.859L17.807 15.402L17.831 14.97Z" fill="#EC9E46"/>
<path fill-rule="evenodd" clip-rule="evenodd" d="M25.7405 26.3145C25.7407 26.8412 25.9501 27.3463 26.3227 27.7186C26.6953 28.0909 27.2005 28.3 27.7272 28.2998C28.254 28.2996 28.759 28.0901 29.1313 27.7176C29.5036 27.345 29.7127 26.8397 29.7125 26.313C29.7125 25.7863 29.5032 25.2812 29.1308 24.9087C28.7583 24.5363 28.2532 24.327 27.7265 24.327C27.1998 24.327 26.6946 24.5363 26.3222 24.9087C25.9497 25.2812 25.7405 25.7878 25.7405 26.3145Z" fill="#FFCE01"/>
<path fill-rule="evenodd" clip-rule="evenodd" d="M27.725 24.327C27.1981 24.327 26.6927 24.5363 26.3201 24.9089C25.9475 25.2815 25.7382 25.7869 25.7382 26.3138C25.7382 26.8407 25.9475 27.346 26.3201 27.7186C26.6927 28.0912 27.1981 28.3005 27.725 28.3005" fill="#EC9E46"/>
</svg>
