<svg width="36" height="36" viewBox="0 0 36 36" fill="none" xmlns="http://www.w3.org/2000/svg">
<mask id="mask0_4_799" style="mask-type:luminance" maskUnits="userSpaceOnUse" x="9" y="0" width="18" height="36">
<path d="M9 0H27V36H9V0Z" fill="white"/>
</mask>
<g mask="url(#mask0_4_799)">
<path fill-rule="evenodd" clip-rule="evenodd" d="M12.8925 5.01151V1.95001C12.8997 1.68988 12.8547 1.43094 12.7602 1.1885C12.6656 0.946052 12.5234 0.725025 12.342 0.538477C12.1605 0.351929 11.9435 0.203647 11.7038 0.102395C11.4641 0.00114248 11.2065 -0.0510254 10.9462 -0.0510254C10.686 -0.0510254 10.4284 0.00114248 10.1887 0.102395C9.94897 0.203647 9.73198 0.351929 9.55054 0.538477C9.3691 0.725025 9.22689 0.946052 9.13233 1.1885C9.03777 1.43094 8.99278 1.68988 9 1.95001V31.455C9 36.534 13.029 35.9835 18 35.9835C22.971 35.9835 27 36.534 27 31.455V8.38501C27 6.52201 25.5525 5.01151 23.7675 5.01151H12.8925Z" fill="#59BCD1"/>
</g>
<path fill-rule="evenodd" clip-rule="evenodd" d="M14.457 26.4645C14.457 26.6456 14.3851 26.8194 14.2572 26.9476C14.1292 27.0759 13.9556 27.1481 13.7745 27.1485H11.667C11.4859 27.1481 11.3123 27.0759 11.1843 26.9476C11.0564 26.8194 10.9845 26.6456 10.9845 26.4645V24.36C10.9845 23.985 11.2905 23.6775 11.667 23.6775H13.7745C14.1495 23.6775 14.457 23.9835 14.457 24.36V26.4645Z" fill="#2CA4A9"/>
<path fill-rule="evenodd" clip-rule="evenodd" d="M13.7745 23.676H11.667C11.4861 23.6764 11.3127 23.7484 11.1848 23.8763C11.0569 24.0042 10.9849 24.1776 10.9845 24.3585V25.6515C10.9845 25.2735 11.2905 24.9675 11.667 24.9675H13.7745C14.1495 24.9675 14.457 25.2735 14.457 25.6515V24.3585C14.4566 24.1776 14.3846 24.0042 14.2567 23.8763C14.1288 23.7484 13.9554 23.6764 13.7745 23.676Z" fill="#2A8F9E"/>
<path fill-rule="evenodd" clip-rule="evenodd" d="M25.371 26.4645C25.371 26.6456 25.2991 26.8194 25.1712 26.9476C25.0432 27.0759 24.8696 27.1481 24.6885 27.1485H22.581C22.4912 27.1485 22.4024 27.1308 22.3195 27.0964C22.2366 27.062 22.1613 27.0116 22.0979 26.9481C22.0345 26.8845 21.9842 26.8091 21.95 26.7261C21.9158 26.6432 21.8983 26.5542 21.8985 26.4645V24.36C21.8985 23.985 22.2045 23.6775 22.581 23.6775H24.6885C25.0635 23.6775 25.371 23.9835 25.371 24.36V26.4645Z" fill="#2CA4A9"/>
<path fill-rule="evenodd" clip-rule="evenodd" d="M24.687 23.676H22.581C22.4001 23.6764 22.2267 23.7484 22.0988 23.8763C21.9709 24.0042 21.8989 24.1776 21.8985 24.3585V25.6515C21.8985 25.2735 22.2045 24.9675 22.581 24.9675H24.687C25.0635 24.9675 25.371 25.2735 25.371 25.6515V24.3585C25.3706 24.1773 25.2984 24.0038 25.1701 23.8758C25.0419 23.7479 24.8681 23.676 24.687 23.676Z" fill="#2A8F9E"/>
<path fill-rule="evenodd" clip-rule="evenodd" d="M19.914 26.4645C19.914 26.6456 19.8421 26.8194 19.7142 26.9476C19.5862 27.0759 19.4126 27.1481 19.2315 27.1485H17.124C17.0342 27.1485 16.9454 27.1308 16.8625 27.0964C16.7796 27.062 16.7043 27.0116 16.6409 26.9481C16.5775 26.8845 16.5272 26.8091 16.493 26.7261C16.4588 26.6432 16.4413 26.5542 16.4415 26.4645V24.36C16.4415 23.985 16.7475 23.6775 17.124 23.6775H19.23C19.605 23.6775 19.9125 23.9835 19.9125 24.36V26.466L19.914 26.4645Z" fill="#2CA4A9"/>
<path fill-rule="evenodd" clip-rule="evenodd" d="M19.23 23.676H17.124C16.9431 23.6764 16.7697 23.7484 16.6418 23.8763C16.5139 24.0042 16.4419 24.1776 16.4415 24.3585V25.6515C16.4415 25.2735 16.7475 24.9675 17.124 24.9675H19.23C19.608 24.9675 19.914 25.2735 19.914 25.6515V24.3585C19.9136 24.1773 19.8414 24.0038 19.7131 23.8758C19.5849 23.7479 19.4112 23.676 19.23 23.676Z" fill="#2A8F9E"/>
<path fill-rule="evenodd" clip-rule="evenodd" d="M14.457 31.9215C14.457 32.1026 14.3851 32.2764 14.2572 32.4046C14.1292 32.5329 13.9556 32.6051 13.7745 32.6055H11.667C11.4859 32.6051 11.3123 32.5329 11.1843 32.4046C11.0564 32.2764 10.9845 32.1026 10.9845 31.9215V29.8155C10.9845 29.4405 11.2905 29.133 11.667 29.133H13.7745C14.1495 29.133 14.457 29.439 14.457 29.8155V31.9215Z" fill="#2CA4A9"/>
<path fill-rule="evenodd" clip-rule="evenodd" d="M13.7745 29.133H11.667C11.4861 29.1334 11.3127 29.2054 11.1848 29.3333C11.0569 29.4612 10.9849 29.6346 10.9845 29.8155V31.1085C10.9845 30.7305 11.2905 30.4245 11.667 30.4245H13.7745C14.1495 30.4245 14.457 30.7305 14.457 31.1085V29.8155C14.4566 29.6346 14.3846 29.4612 14.2567 29.3333C14.1288 29.2054 13.9554 29.1334 13.7745 29.133Z" fill="#2A8F9E"/>
<path fill-rule="evenodd" clip-rule="evenodd" d="M25.371 31.9215C25.371 32.1026 25.2991 32.2764 25.1712 32.4046C25.0432 32.5329 24.8696 32.6051 24.6885 32.6055H22.581C22.4912 32.6055 22.4024 32.5878 22.3195 32.5534C22.2366 32.519 22.1613 32.4686 22.0979 32.4051C22.0345 32.3415 21.9842 32.2661 21.95 32.1831C21.9158 32.1002 21.8983 32.0112 21.8985 31.9215V29.8155C21.8985 29.4405 22.2045 29.133 22.581 29.133H24.6885C25.0635 29.133 25.371 29.439 25.371 29.8155V31.9215Z" fill="#2CA4A9"/>
<path fill-rule="evenodd" clip-rule="evenodd" d="M24.687 29.133H22.581C22.4001 29.1334 22.2267 29.2054 22.0988 29.3333C21.9709 29.4612 21.8989 29.6346 21.8985 29.8155V31.1085C21.8985 30.7305 22.2045 30.4245 22.581 30.4245H24.687C25.0635 30.4245 25.371 30.7305 25.371 31.1085V29.8155C25.3706 29.6343 25.2984 29.4608 25.1701 29.3328C25.0419 29.2049 24.8681 29.133 24.687 29.133Z" fill="#2A8F9E"/>
<path fill-rule="evenodd" clip-rule="evenodd" d="M19.914 31.9215C19.914 32.1026 19.8421 32.2764 19.7142 32.4046C19.5862 32.5329 19.4126 32.6051 19.2315 32.6055H17.124C17.0342 32.6055 16.9454 32.5878 16.8625 32.5534C16.7796 32.519 16.7043 32.4686 16.6409 32.4051C16.5775 32.3415 16.5272 32.2661 16.493 32.1831C16.4588 32.1002 16.4413 32.0112 16.4415 31.9215V29.8155C16.4415 29.4405 16.7475 29.133 17.124 29.133H19.23C19.605 29.133 19.9125 29.439 19.9125 29.8155L19.914 31.9215Z" fill="#2CA4A9"/>
<path fill-rule="evenodd" clip-rule="evenodd" d="M17.124 29.133C16.9431 29.1334 16.7697 29.2054 16.6418 29.3333C16.5139 29.4612 16.4419 29.6346 16.4415 29.8155V31.1085C16.4415 30.7305 16.7475 30.4245 17.124 30.4245H19.23C19.608 30.4245 19.914 30.7305 19.914 31.1085V29.8155C19.9136 29.6343 19.8414 29.4608 19.7131 29.3328C19.5849 29.2049 19.4112 29.133 19.23 29.133H17.124Z" fill="#2A8F9E"/>
<mask id="mask1_4_799" style="mask-type:luminance" maskUnits="userSpaceOnUse" x="9" y="0" width="18" height="36">
<path d="M9 36H27V0.359985H9V36Z" fill="white"/>
</mask>
<g mask="url(#mask1_4_799)">
<path fill-rule="evenodd" clip-rule="evenodd" d="M9 4.5H12.9V3H9V4.5Z" fill="#2CA4A9"/>
</g>
<mask id="mask2_4_799" style="mask-type:luminance" maskUnits="userSpaceOnUse" x="9" y="0" width="18" height="36">
<path d="M9 36H27V0.359985H9V36Z" fill="white"/>
</mask>
<g mask="url(#mask2_4_799)">
<path d="M24 19.437C24 20.2995 23.373 21 22.599 21H13.401C12.627 21 12 20.298 12 19.437V10.5615C12 9.699 12.627 9 13.401 9H22.599C23.373 9 24 9.699 24 10.5615V19.437Z" fill="white"/>
<mask id="mask3_4_799" style="mask-type:luminance" maskUnits="userSpaceOnUse" x="12" y="9" width="12" height="12">
<path d="M24 19.437C24 20.2995 23.373 21 22.599 21H13.401C12.627 21 12 20.298 12 19.437V10.5615C12 9.699 12.627 9 13.401 9H22.599C23.373 9 24 9.699 24 10.5615V19.437Z" fill="white"/>
</mask>
<g mask="url(#mask3_4_799)">
<path fill-rule="evenodd" clip-rule="evenodd" d="M12.6645 8.793C12.4695 8.793 12.2865 8.832 12.1125 8.8935L24.852 21.222C25.17 20.916 25.371 20.487 25.371 20.0115V10.473C25.371 10.0274 25.194 9.60012 24.8789 9.28506C24.5639 8.97 24.1366 8.793 23.691 8.793H12.666H12.6645Z" fill="#E4E3D7"/>
</g>
</g>
</svg>
