<svg width="36" height="36" viewBox="0 0 36 36" fill="none" xmlns="http://www.w3.org/2000/svg">
<path fill-rule="evenodd" clip-rule="evenodd" d="M21.458 13.67C22.058 13.822 22.734 13.822 23.408 13.52C24.608 12.996 25.434 11.87 25.434 10.594C25.434 9.16797 24.534 7.89197 23.258 7.44197C23.184 6.16597 22.058 5.11397 20.706 5.11397C20.706 4.88997 20.706 4.73997 20.632 4.51397C20.5419 4.20727 20.3673 3.9321 20.1282 3.7199C19.8892 3.50771 19.5952 3.36704 19.28 3.31397C18.756 3.23797 18.306 3.46397 17.93 3.76397C17.6038 3.46353 17.1733 3.3021 16.73 3.31397C15.754 3.31397 14.928 4.13997 14.928 5.11397C13.728 5.18997 12.752 6.23997 12.752 7.44197C12.752 7.66597 12.752 7.81597 12.826 7.96597C11.4 8.04197 10.2 9.24197 10.2 10.668C10.2 11.194 10.35 11.644 10.574 12.02C10.3458 12.1989 10.1602 12.4263 10.0305 12.6857C9.90077 12.9451 9.83026 13.23 9.824 13.52C9.824 14.42 10.35 15.096 11.174 15.398C11.1 18.924 12.3 21.026 14.778 23.802L14.928 23.954C15.904 25.078 18.228 24.254 17.704 22.754C15.078 15.022 23.184 16.148 23.184 16.148C23.184 16.148 23.408 13.822 21.308 13.746C21.458 13.822 21.458 13.746 21.458 13.67Z" fill="#88C057"/>
<path fill-rule="evenodd" clip-rule="evenodd" d="M15.904 12.62V12.47C16.204 11.794 16.504 11.194 16.878 10.744C18.606 10.368 19.882 10.894 19.882 10.968H20.032C20.182 10.968 20.332 10.894 20.406 10.744C20.482 10.518 20.406 10.294 20.182 10.218C20.106 10.218 19.056 9.76799 17.554 9.84399C18.306 9.09199 18.98 8.71799 19.054 8.64399C19.58 8.34399 20.406 8.71799 20.706 8.86799C20.782 8.86799 20.856 8.94199 20.932 8.94199C21.082 8.94199 21.158 8.868 21.232 8.71799C21.308 8.56799 21.308 8.26799 21.082 8.192C21.006 8.192 20.182 7.66599 19.282 7.74199C19.356 7.44199 19.506 7.14199 19.582 7.06599C19.732 6.91599 19.656 6.69199 19.506 6.53999C19.356 6.38999 19.13 6.46599 18.98 6.61599C18.98 6.61599 18.456 7.29199 18.456 8.04199C17.93 8.41799 16.428 9.392 15.454 11.494C15.378 11.57 15.378 11.72 15.302 11.87C14.252 11.118 14.402 9.91799 14.478 9.84399C14.478 9.61799 14.402 9.46799 14.178 9.39199C13.952 9.39199 13.802 9.46799 13.726 9.69199C13.652 10.368 13.802 11.794 15.078 12.62C14.778 13.446 14.552 14.42 14.478 15.622V15.698C14.402 16.522 14.478 17.424 14.628 18.474C14.178 18.174 13.952 17.798 13.876 17.798C13.802 17.648 13.576 17.574 13.352 17.648C13.202 17.724 13.126 17.948 13.202 18.174C13.202 18.25 13.652 19.074 14.702 19.374C15.002 20.876 15.454 22.602 16.278 24.478C16.5445 24.4739 16.8047 24.3964 17.03 24.254C16.204 22.302 15.678 20.5 15.454 19C15.228 17.874 15.154 16.822 15.228 15.848C15.754 14.948 17.328 14.872 17.328 14.872C17.554 14.872 17.704 14.722 17.704 14.496C17.704 14.272 17.554 14.122 17.33 14.122C17.254 14.122 16.204 14.122 15.302 14.722C15.378 13.972 15.602 13.296 15.828 12.696C15.904 12.696 15.904 12.696 15.904 12.62Z" fill="#659C35"/>
<path fill-rule="evenodd" clip-rule="evenodd" d="M20.412 18.02L20.842 17.764C21.638 17.284 22.634 17.284 23.43 17.764L23.86 18.022C24.658 18.5 25.652 18.5 26.45 18.022L27.666 17.482C27.846 16.982 27.97 16.622 28.018 16.462C29.154 12.81 29.884 8.96399 29.984 5.12999C30.024 3.58799 28.75 1.18199 26.63 2.27599C24.548 3.34999 23.056 7.46599 22.01 9.42199C20.5122 12.2412 19.3362 15.2199 18.504 18.302C19.144 18.462 19.83 18.368 20.412 18.02Z" fill="#EEAF4B"/>
<path fill-rule="evenodd" clip-rule="evenodd" d="M21.944 16.706C21.8478 16.7061 21.7529 16.6832 21.6674 16.6392C21.5818 16.5953 21.5079 16.5315 21.452 16.4533C21.396 16.375 21.3596 16.2845 21.3457 16.1893C21.3317 16.0941 21.3408 15.997 21.372 15.906C21.776 14.724 23.07 14.09 24.252 14.488C24.3841 14.533 24.5238 14.5515 24.663 14.5424C24.8023 14.5334 24.9384 14.497 25.0636 14.4353C25.1888 14.3737 25.3006 14.2879 25.3927 14.183C25.4847 14.0781 25.5551 13.9561 25.6 13.824C25.6255 13.7488 25.6655 13.6795 25.7178 13.6198C25.7701 13.5602 25.8336 13.5114 25.9047 13.4763C25.9758 13.4412 26.0532 13.4205 26.1323 13.4153C26.2115 13.4101 26.2909 13.4205 26.366 13.446C26.4411 13.4714 26.5105 13.5115 26.5701 13.5637C26.6298 13.616 26.6785 13.6795 26.7136 13.7507C26.7487 13.8218 26.7695 13.8992 26.7747 13.9783C26.7799 14.0574 26.7695 14.1368 26.744 14.212C26.342 15.398 25.05 16.034 23.864 15.632C23.5972 15.5422 23.3057 15.5617 23.0531 15.6861C22.8006 15.8105 22.6075 16.0297 22.516 16.296C22.4752 16.4153 22.3982 16.519 22.2956 16.5925C22.1931 16.666 22.0702 16.7057 21.944 16.706ZM23.372 12.5C23.2758 12.5001 23.1809 12.4772 23.0954 12.4332C23.0098 12.3893 22.9359 12.3255 22.88 12.2473C22.824 12.169 22.7876 12.0785 22.7737 11.9833C22.7597 11.8881 22.7688 11.791 22.8 11.7C22.996 11.128 23.404 10.664 23.946 10.396C24.49 10.128 25.106 10.086 25.68 10.282C25.8121 10.3272 25.9518 10.3459 26.0912 10.337C26.2305 10.3281 26.3667 10.2918 26.492 10.2301C26.6172 10.1684 26.7291 10.0826 26.8211 9.97751C26.913 9.87246 26.9834 9.75027 27.028 9.61797C27.0535 9.54298 27.0935 9.47375 27.1457 9.41422C27.1979 9.35469 27.2614 9.30604 27.3324 9.27103C27.4035 9.23602 27.4807 9.21535 27.5597 9.21019C27.6387 9.20503 27.718 9.21549 27.793 9.24097C27.868 9.26644 27.9372 9.30644 27.9967 9.35867C28.0563 9.4109 28.1049 9.47435 28.1399 9.54539C28.1749 9.61642 28.1956 9.69366 28.2008 9.77269C28.2059 9.85171 28.1955 9.93098 28.17 10.006C27.77 11.192 26.476 11.826 25.292 11.426C25.1599 11.3807 25.0202 11.362 24.8808 11.3709C24.7415 11.3798 24.6053 11.4161 24.48 11.4778C24.3548 11.5395 24.2429 11.6254 24.1509 11.7304C24.0589 11.8355 23.9886 11.9577 23.944 12.09C23.9035 12.2095 23.8265 12.3133 23.7239 12.3869C23.6213 12.4604 23.4982 12.5 23.372 12.5ZM24.8 8.29197C24.7038 8.29207 24.6089 8.2692 24.5234 8.22524C24.4378 8.18129 24.3639 8.11753 24.308 8.03927C24.252 7.961 24.2156 7.87051 24.2017 7.77531C24.1877 7.68011 24.1968 7.58297 24.228 7.49197C24.3991 6.99237 24.7612 6.58094 25.235 6.34778C25.7089 6.11462 26.2558 6.07873 26.756 6.24797C26.8535 6.28186 26.9568 6.29606 27.0599 6.28973C27.163 6.2834 27.2637 6.25666 27.3564 6.21108C27.449 6.1655 27.5317 6.10198 27.5996 6.02419C27.6675 5.94641 27.7193 5.85592 27.752 5.75797C27.8035 5.60626 27.9131 5.48121 28.0567 5.41032C28.2004 5.33943 28.3663 5.32851 28.518 5.37997C28.6697 5.43142 28.7948 5.54103 28.8656 5.68468C28.9365 5.82833 28.9475 5.99426 28.896 6.14597C28.8126 6.39436 28.6808 6.62374 28.5081 6.8208C28.3354 7.01787 28.1253 7.17869 27.89 7.29397C27.6555 7.41043 27.4003 7.47924 27.139 7.4964C26.8778 7.51357 26.6157 7.47875 26.368 7.39397C26.2704 7.36062 26.1672 7.34684 26.0644 7.35343C25.9615 7.36002 25.8609 7.38684 25.7684 7.43235C25.6758 7.47787 25.5932 7.54119 25.5252 7.61868C25.4572 7.69618 25.4051 7.78632 25.372 7.88397C25.3309 8.00297 25.2537 8.1062 25.1512 8.17932C25.0487 8.25244 24.9259 8.29181 24.8 8.29197Z" fill="#A46F3E"/>
<path fill-rule="evenodd" clip-rule="evenodd" d="M12.976 20.164C11.742 20.6077 10.389 20.589 9.16778 20.1114C7.94653 19.6338 6.93985 18.7296 6.33435 17.5664C5.72884 16.4033 5.56556 15.06 5.87478 13.7857C6.184 12.5113 6.94474 11.3923 8.016 10.636C7.29051 10.8991 6.62961 11.3142 6.07754 11.8535C5.52547 12.3927 5.09498 13.0437 4.81487 13.7628C4.53477 14.4819 4.41152 15.2526 4.45338 16.0232C4.49523 16.7938 4.70123 17.5465 5.05758 18.2311C5.41393 18.9156 5.91241 19.5161 6.51964 19.9924C7.12687 20.4687 7.82885 20.8097 8.57857 20.9928C9.32829 21.1758 10.1085 21.1965 10.8668 21.0536C11.6252 20.9106 12.3443 20.6073 12.976 20.164Z" fill="#E04C5B"/>
<path fill-rule="evenodd" clip-rule="evenodd" d="M12.976 20.164C14.0167 19.4371 14.7675 18.3662 15.096 17.14C15.4684 15.7516 15.2747 14.2722 14.5573 13.0266C13.84 11.7809 12.6577 10.8708 11.27 10.496C10.1968 10.206 9.06028 10.2549 8.016 10.636C6.94474 11.3923 6.184 12.5113 5.87478 13.7857C5.56556 15.06 5.72884 16.4032 6.33435 17.5664C6.93985 18.7296 7.94653 19.6338 9.16778 20.1114C10.389 20.589 11.742 20.6077 12.976 20.164Z" fill="#F05E64"/>
<path fill-rule="evenodd" clip-rule="evenodd" d="M12.114 17.03L12.464 15.726L10.696 15.25L11.172 13.482L9.868 13.132L9.392 14.9L7.612 14.42L7.262 15.724L9.042 16.204L8.562 17.984L9.866 18.334L10.346 16.554L12.114 17.03Z" fill="white"/>
<path fill-rule="evenodd" clip-rule="evenodd" d="M28.72 17.296L27.668 32.41C27.6311 33.1366 27.3163 33.8211 26.7888 34.3222C26.2614 34.8232 25.5615 35.1024 24.834 35.102H7.884C7.15649 35.1024 6.45664 34.8232 5.92916 34.3222C5.40169 33.8211 5.08694 33.1366 5.05 32.41L4.022 17.79C4.01861 17.7125 4.03627 17.6354 4.07309 17.5671C4.10992 17.4988 4.16455 17.4418 4.23119 17.402C4.29783 17.3622 4.37399 17.3412 4.4516 17.3412C4.5292 17.3412 4.60536 17.3622 4.672 17.402L5.484 17.888C6.418 18.448 7.584 18.448 8.516 17.888L8.726 17.764C9.522 17.284 10.518 17.284 11.314 17.764L11.744 18.022C12.54 18.5 13.536 18.5 14.332 18.022L14.762 17.762C15.562 17.284 16.556 17.284 17.352 17.762L17.782 18.022C18.58 18.5 19.574 18.5 20.37 18.022L20.802 17.762C21.598 17.284 22.594 17.284 23.39 17.762L23.82 18.022C24.618 18.5 25.612 18.5 26.408 18.022L28.454 17.112C28.4838 17.0985 28.5165 17.0929 28.5491 17.0958C28.5816 17.0987 28.6129 17.11 28.6399 17.1285C28.6668 17.147 28.6885 17.1721 28.7029 17.2014C28.7173 17.2308 28.7239 17.2634 28.722 17.296" fill="#FBD490"/>
<path fill-rule="evenodd" clip-rule="evenodd" d="M19.388 14.752L17.348 18.832V35.152H25.916V18.832L27.956 14.752H19.388Z" fill="#76ABC6"/>
<path fill-rule="evenodd" clip-rule="evenodd" d="M27.956 14.752L25.916 18.832V35.152H29.996V18.832L27.956 14.752Z" fill="#9ED7F3"/>
<mask id="mask0_4_1126" style="mask-type:luminance" maskUnits="userSpaceOnUse" x="4" y="2" width="26" height="34">
<path d="M4 35.196H29.996V2H4V35.196Z" fill="white"/>
</mask>
<g mask="url(#mask0_4_1126)">
<path fill-rule="evenodd" clip-rule="evenodd" d="M19.388 14.752H27.958V13.12H19.388V14.752ZM24.284 25.622C24.284 26.3253 24.0046 26.9999 23.5072 27.4972C23.0099 27.9946 22.3354 28.274 21.632 28.274C20.9286 28.274 20.2541 27.9946 19.7568 27.4972C19.2594 26.9999 18.98 26.3253 18.98 25.622C18.98 24.9186 19.2594 24.2441 19.7568 23.7467C20.2541 23.2494 20.9286 22.97 21.632 22.97C22.3354 22.97 23.0099 23.2494 23.5072 23.7467C24.0046 24.2441 24.284 24.9186 24.284 25.622Z" fill="#9ED7F3"/>
</g>
<mask id="mask1_4_1126" style="mask-type:luminance" maskUnits="userSpaceOnUse" x="4" y="2" width="26" height="34">
<path d="M4 35.196H29.996V2H4V35.196Z" fill="white"/>
</mask>
<g mask="url(#mask1_4_1126)">
<path fill-rule="evenodd" clip-rule="evenodd" d="M17.348 18.832L19.388 14.752H27.956L25.916 18.832H17.348Z" fill="#5794AC"/>
</g>
<mask id="mask2_4_1126" style="mask-type:luminance" maskUnits="userSpaceOnUse" x="4" y="2" width="26" height="34">
<path d="M4 35.196H29.996V2H4V35.196Z" fill="white"/>
</mask>
<g mask="url(#mask2_4_1126)">
<path fill-rule="evenodd" clip-rule="evenodd" d="M12.708 35.1C12.708 35.1 7.45 35.424 7.45 33.304C7.45 31.184 6.51 18.266 6.51 18.266C6.51 18.266 6.098 18.314 4.672 17.402C4.672 17.402 3.722 16.662 4.08 18.622L5.05 32.41C5.05 32.41 5.05 35.61 8.608 35.15L12.708 35.102V35.1Z" fill="#E0B877"/>
</g>
</svg>
