<svg width="37" height="36" viewBox="0 0 37 36" fill="none" xmlns="http://www.w3.org/2000/svg">
<path fill-rule="evenodd" clip-rule="evenodd" d="M11.7655 22.467C11.872 22.3161 12.0125 22.1923 12.1756 22.1055C12.3387 22.0188 12.5198 21.9715 12.7045 21.9675H22.972C23.332 21.9675 23.674 22.149 23.911 22.4685C24.1495 22.7835 24.259 23.2065 24.2125 23.6265L23.0275 34.4385C22.948 35.172 22.4155 35.721 21.787 35.721H13.8895C13.2595 35.721 12.727 35.172 12.6475 34.4385L11.4625 23.6265C11.4175 23.2065 11.527 22.785 11.7655 22.467Z" fill="#46423D"/>
<path fill-rule="evenodd" clip-rule="evenodd" d="M11.7655 22.467C11.872 22.3161 12.0125 22.1923 12.1756 22.1055C12.3387 22.0188 12.5198 21.9715 12.7045 21.9675H22.972C23.332 21.9675 23.674 22.149 23.911 22.4685C24.1495 22.7835 24.259 23.2065 24.2125 23.6265L23.0275 34.4385C22.948 35.172 22.4155 35.721 21.787 35.721H13.8895C13.2595 35.721 12.727 35.172 12.6475 34.4385L11.4625 23.6265C11.4175 23.2065 11.527 22.785 11.7655 22.467Z" fill="#47463E"/>
<path fill-rule="evenodd" clip-rule="evenodd" d="M22.972 21.9675H17.5735V35.721H21.787C22.417 35.721 22.948 35.172 23.0275 34.4385L24.2125 23.6265C24.259 23.2065 24.1495 22.785 23.9125 22.4685C23.806 22.3171 23.6654 22.1929 23.502 22.1059C23.3386 22.0188 23.1571 21.9715 22.972 21.9675Z" fill="#3A3936"/>
<mask id="mask0_4_1025" style="mask-type:luminance" maskUnits="userSpaceOnUse" x="11" y="0" width="14" height="15">
<path d="M11.4535 0.355499H24.223V14.109H11.4535V0.355499Z" fill="white"/>
</mask>
<g mask="url(#mask0_4_1025)">
<path fill-rule="evenodd" clip-rule="evenodd" d="M23.911 13.6095C23.8045 13.7604 23.664 13.8842 23.5009 13.971C23.3379 14.0577 23.1567 14.105 22.972 14.109H12.706C12.5207 14.1053 12.3388 14.058 12.1752 13.971C12.0115 13.884 11.8707 13.7596 11.764 13.608C11.5225 13.2738 11.4154 12.861 11.464 12.4515L12.649 1.6365C12.7285 0.903004 13.261 0.354004 13.8895 0.354004H21.787C22.417 0.354004 22.948 0.903004 23.029 1.6365L24.214 12.4485C24.259 12.8685 24.1495 13.2915 23.911 13.608" fill="#46423D"/>
</g>
<mask id="mask1_4_1025" style="mask-type:luminance" maskUnits="userSpaceOnUse" x="11" y="0" width="14" height="15">
<path d="M11.4535 0.355499H24.223V14.109H11.4535V0.355499Z" fill="white"/>
</mask>
<g mask="url(#mask1_4_1025)">
<path fill-rule="evenodd" clip-rule="evenodd" d="M23.911 13.6095C23.8045 13.7604 23.664 13.8842 23.5009 13.971C23.3379 14.0577 23.1567 14.105 22.972 14.109H12.706C12.5207 14.1053 12.3388 14.058 12.1752 13.971C12.0115 13.884 11.8707 13.7596 11.764 13.608C11.5225 13.2738 11.4154 12.861 11.464 12.4515L12.649 1.6365C12.7285 0.903004 13.261 0.354004 13.8895 0.354004H21.787C22.417 0.354004 22.948 0.903004 23.029 1.6365L24.214 12.4485C24.259 12.8685 24.1495 13.2915 23.911 13.608" fill="#47463E"/>
</g>
<path fill-rule="evenodd" clip-rule="evenodd" d="M23.029 1.63799C22.9495 0.905995 22.417 0.356995 21.7885 0.356995H17.5735V14.109H22.972C23.332 14.109 23.674 13.9275 23.9125 13.6095C24.1495 13.293 24.259 12.87 24.2125 12.45L23.029 1.63799Z" fill="#3A3936"/>
<path fill-rule="evenodd" clip-rule="evenodd" d="M26.4145 18.183C26.4145 20.528 25.483 22.7769 23.8248 24.4351C22.1667 26.0932 19.9177 27.0247 17.5728 27.0247C15.2278 27.0247 12.9789 26.0932 11.3207 24.4351C9.66256 22.7769 8.73102 20.528 8.73102 18.183C8.73102 15.838 9.66256 13.5891 11.3207 11.9309C12.9789 10.2728 15.2278 9.34125 17.5728 9.34125C19.9177 9.34125 22.1667 10.2728 23.8248 11.9309C25.483 13.5891 26.4145 15.838 26.4145 18.183Z" fill="#F1F0E5"/>
<path fill-rule="evenodd" clip-rule="evenodd" d="M17.5735 10.3245C15.4735 10.3245 13.501 11.142 12.016 12.627C11.2842 13.355 10.704 14.2209 10.309 15.1746C9.91403 16.1282 9.71214 17.1508 9.715 18.183C9.71501 20.283 10.531 22.2555 12.016 23.7405C12.7441 24.4725 13.6103 25.0528 14.5642 25.4478C15.5182 25.8428 16.541 26.0446 17.5735 26.0415C21.907 26.0415 25.4335 22.5165 25.4335 18.183C25.4335 13.8495 21.907 10.3245 17.5735 10.3245ZM17.5735 28.0065C16.2829 28.0101 15.0044 27.7577 13.8121 27.2639C12.6197 26.77 11.5371 26.0446 10.627 25.1295C9.71207 24.2196 8.98668 23.1373 8.49285 21.9452C7.99901 20.7531 7.74652 19.4749 7.75001 18.1845C7.75001 15.5595 8.77151 13.0935 10.627 11.238C11.5368 10.3228 12.619 9.59716 13.8112 9.10306C15.0033 8.60897 16.2816 8.35624 17.572 8.35953C20.177 8.36191 22.6747 9.39781 24.5167 11.2398C26.3587 13.0819 27.3946 15.5795 27.397 18.1845C27.3938 20.7888 26.3578 23.2854 24.5162 25.1268C22.6746 26.9681 20.1777 28.0037 17.5735 28.0065Z" fill="#7F727B"/>
<path fill-rule="evenodd" clip-rule="evenodd" d="M11.4025 11.88C13.0742 10.2085 15.3413 9.26957 17.7053 9.26971C20.0692 9.26986 22.3363 10.2091 24.0077 11.8807C25.6792 13.5524 26.6181 15.8196 26.618 18.1835C26.6179 20.5474 25.6787 22.8145 24.007 24.486" fill="#E4E3D7"/>
<path fill-rule="evenodd" clip-rule="evenodd" d="M17.575 13.6185C17.8352 13.6185 18.0847 13.5151 18.2687 13.3312C18.4527 13.1472 18.556 12.8977 18.556 12.6375C18.556 12.3773 18.4527 12.1278 18.2687 11.9438C18.0847 11.7598 17.8352 11.6565 17.575 11.6565C17.3148 11.6565 17.0653 11.7598 16.8813 11.9438C16.6974 12.1278 16.594 12.3773 16.594 12.6375C16.594 12.8977 16.6974 13.1472 16.8813 13.3312C17.0653 13.5151 17.3148 13.6185 17.575 13.6185ZM17.575 24.4245C17.8356 24.4245 18.0855 24.321 18.2698 24.1367C18.454 23.9525 18.5575 23.7026 18.5575 23.442C18.5575 23.1814 18.454 22.9315 18.2698 22.7473C18.0855 22.563 17.8356 22.4595 17.575 22.4595C17.3144 22.4595 17.0645 22.563 16.8803 22.7473C16.696 22.9315 16.5925 23.1814 16.5925 23.442C16.5925 23.7026 16.696 23.9525 16.8803 24.1367C17.0645 24.321 17.3144 24.4245 17.575 24.4245ZM21.994 18.039C21.994 18.2992 22.0974 18.5487 22.2813 18.7327C22.4653 18.9166 22.7148 19.02 22.975 19.02C23.2352 19.02 23.4847 18.9166 23.6687 18.7327C23.8527 18.5487 23.956 18.2992 23.956 18.039C23.956 17.7788 23.8527 17.5293 23.6687 17.3453C23.4847 17.1613 23.2352 17.058 22.975 17.058C22.7148 17.058 22.4653 17.1613 22.2813 17.3453C22.0974 17.5293 21.994 17.7788 21.994 18.039ZM11.188 18.039C11.188 18.2992 11.2914 18.5487 11.4753 18.7327C11.6593 18.9166 11.9088 19.02 12.169 19.02C12.4292 19.02 12.6787 18.9166 12.8627 18.7327C13.0467 18.5487 13.15 18.2992 13.15 18.039C13.15 17.7788 13.0467 17.5293 12.8627 17.3453C12.6787 17.1613 12.4292 17.058 12.169 17.058C11.9088 17.058 11.6593 17.1613 11.4753 17.3453C11.2914 17.5293 11.188 17.7788 11.188 18.039ZM13.645 22.95C13.9052 22.95 14.1547 22.8466 14.3387 22.6627C14.5227 22.4787 14.626 22.2292 14.626 21.969C14.626 21.7088 14.5227 21.4593 14.3387 21.2753C14.1547 21.0913 13.9052 20.988 13.645 20.988C13.3848 20.988 13.1353 21.0913 12.9513 21.2753C12.7674 21.4593 12.664 21.7088 12.664 21.969C12.664 22.2292 12.7674 22.4787 12.9513 22.6627C13.1353 22.8466 13.3848 22.95 13.645 22.95ZM20.521 21.969C20.521 22.2296 20.6245 22.4795 20.8088 22.6637C20.993 22.848 21.2429 22.9515 21.5035 22.9515C21.7641 22.9515 22.014 22.848 22.1983 22.6637C22.3825 22.4795 22.486 22.2296 22.486 21.969C22.486 21.7084 22.3825 21.4585 22.1983 21.2743C22.014 21.09 21.7641 20.9865 21.5035 20.9865C21.2429 20.9865 20.993 21.09 20.8088 21.2743C20.6245 21.4585 20.521 21.7084 20.521 21.969ZM12.7705 14.601C12.7705 14.8612 12.8739 15.1107 13.0578 15.2947C13.2418 15.4786 13.4913 15.582 13.7515 15.582C14.0117 15.582 14.2612 15.4786 14.4452 15.2947C14.6292 15.1107 14.7325 14.8612 14.7325 14.601C14.7325 14.3408 14.6292 14.0913 14.4452 13.9073C14.2612 13.7233 14.0117 13.62 13.7515 13.62C13.4913 13.62 13.2418 13.7233 13.0578 13.9073C12.8739 14.0913 12.7705 14.3408 12.7705 14.601Z" fill="#3A3936"/>
<path fill-rule="evenodd" clip-rule="evenodd" d="M22.3135 13.584C22.258 13.5299 22.1846 13.498 22.1072 13.4944C22.0298 13.4908 21.9538 13.5158 21.8935 13.5645L17.0935 17.5275C17.0062 17.6147 16.937 17.7183 16.8899 17.8323C16.8428 17.9464 16.8187 18.0686 16.819 18.192C16.819 18.4335 16.9135 18.6645 17.086 18.837C17.26 19.0095 17.491 19.107 17.74 19.107C17.98 19.1067 18.211 19.0156 18.3865 18.852L20.095 16.794L22.3375 14.001C22.3851 13.9405 22.409 13.8648 22.4046 13.7879C22.4001 13.7111 22.3677 13.6386 22.3135 13.584Z" fill="#F05A4E"/>
<path fill-rule="evenodd" clip-rule="evenodd" d="M28.87 18.459C28.87 18.8498 28.7147 19.2247 28.4384 19.5011C28.162 19.7775 27.7871 19.9327 27.3963 19.9327C27.0054 19.9327 26.6305 19.7775 26.3542 19.5011C26.0778 19.2247 25.9225 18.8498 25.9225 18.459C25.9225 18.0681 26.0778 17.6933 26.3542 17.4169C26.6305 17.1405 27.0054 16.9852 27.3963 16.9852C27.7871 16.9852 28.162 17.1405 28.4384 17.4169C28.7147 17.6933 28.87 18.0681 28.87 18.459Z" fill="#6C6068"/>
<path fill-rule="evenodd" clip-rule="evenodd" d="M23.131 23.7405C24.603 22.2655 25.4297 20.2668 25.4297 18.183C25.4297 16.0992 24.603 14.1005 23.131 12.6255C22.4029 11.8935 21.5368 11.3132 20.5828 10.9182C19.6288 10.5233 18.606 10.3215 17.5735 10.3245C15.4735 10.3245 13.501 11.142 12.016 12.627L10.627 11.2365C11.537 10.3217 12.6193 9.59643 13.8114 9.1026C15.0035 8.60877 16.2817 8.35621 17.572 8.35953C20.197 8.35953 22.6645 9.38103 24.52 11.2365C26.3599 13.0802 27.3931 15.5784 27.3931 18.183C27.3931 20.7876 26.3599 23.2859 24.52 25.1295L23.131 23.7405Z" fill="#6C6068"/>
</svg>
