<svg width="37" height="36" viewBox="0 0 37 36" fill="none" xmlns="http://www.w3.org/2000/svg">
<path fill-rule="evenodd" clip-rule="evenodd" d="M7.02002 27.6525H29.9175V13.479H7.02002V27.6525Z" fill="#2E4A74"/>
<path fill-rule="evenodd" clip-rule="evenodd" d="M4.84052 12.39H32.097V8.02649H4.84202L4.84052 12.39Z" fill="#7F727B"/>
<path fill-rule="evenodd" clip-rule="evenodd" d="M5.37299 8.187H31.968V1.659H5.37299V8.187Z" fill="#006750"/>
<path fill-rule="evenodd" clip-rule="evenodd" d="M10.062 12.39L8.13452 14.3145L14.925 21.105H18.78L10.062 12.39ZM15.3105 12.774L14.154 13.9305L21.3285 21.1065H23.6415L15.3105 12.774Z" fill="#2A8F9E"/>
<mask id="mask0_4_880" style="mask-type:luminance" maskUnits="userSpaceOnUse" x="3" y="0" width="31" height="10">
<path d="M3.75 0.394501H33.1875V9.117H3.75V0.394501Z" fill="white"/>
</mask>
<g mask="url(#mask0_4_880)">
<path fill-rule="evenodd" clip-rule="evenodd" d="M28.827 6.3915C28.6122 6.3915 28.3995 6.34919 28.201 6.26699C28.0026 6.18478 27.8222 6.06429 27.6704 5.9124C27.5185 5.76051 27.398 5.58018 27.3158 5.38173C27.2336 5.18327 27.1912 4.97056 27.1912 4.75575C27.1912 4.54094 27.2336 4.32823 27.3158 4.12978C27.398 3.93132 27.5185 3.75099 27.6704 3.5991C27.8222 3.44721 28.0026 3.32672 28.201 3.24451C28.3995 3.16231 28.6122 3.12 28.827 3.12C29.2608 3.12 29.6769 3.29234 29.9837 3.5991C30.2904 3.90586 30.4627 4.32192 30.4627 4.75575C30.4627 5.18958 30.2904 5.60564 29.9837 5.9124C29.6769 6.21916 29.2608 6.3915 28.827 6.3915ZM24.465 6.3915C24.2503 6.3915 24.0377 6.34921 23.8393 6.26704C23.6409 6.18488 23.4607 6.06444 23.3089 5.91262C23.1571 5.7608 23.0366 5.58056 22.9545 5.38219C22.8723 5.18382 22.83 4.97121 22.83 4.7565C22.83 4.54179 22.8723 4.32918 22.9545 4.13081C23.0366 3.93245 23.1571 3.75221 23.3089 3.60038C23.4607 3.44856 23.6409 3.32812 23.8393 3.24596C24.0377 3.16379 24.2503 3.1215 24.465 3.1215C24.8986 3.1215 25.3145 3.29376 25.6211 3.60038C25.9277 3.907 26.1 4.32287 26.1 4.7565C26.1 5.19013 25.9277 5.606 25.6211 5.91262C25.3145 6.21924 24.8986 6.3915 24.465 6.3915ZM11.9265 6.3915H8.6565C8.44179 6.3915 8.22918 6.34921 8.03081 6.26704C7.83245 6.18488 7.6522 6.06444 7.50038 5.91262C7.34856 5.7608 7.22812 5.58056 7.14596 5.38219C7.06379 5.18382 7.0215 4.97121 7.0215 4.7565C7.0215 4.54179 7.06379 4.32918 7.14596 4.13081C7.22812 3.93245 7.34856 3.75221 7.50038 3.60038C7.6522 3.44856 7.83245 3.32812 8.03081 3.24596C8.22918 3.16379 8.44179 3.1215 8.6565 3.1215H11.9265C12.3601 3.1215 12.776 3.29376 13.0826 3.60038C13.3892 3.907 13.5615 4.32287 13.5615 4.7565C13.5615 5.19013 13.3892 5.606 13.0826 5.91262C12.776 6.21924 12.3601 6.3915 11.9265 6.3915ZM31.0065 0.394501H5.931C4.725 0.394501 3.75 1.371 3.75 2.5755V6.9375C3.75 8.1405 4.725 9.117 5.931 9.117H31.005C32.2095 9.117 33.186 8.142 33.186 6.9375V2.5755C33.186 1.371 32.2125 0.394501 31.0065 0.394501Z" fill="#009F7F"/>
</g>
<mask id="mask1_4_880" style="mask-type:luminance" maskUnits="userSpaceOnUse" x="3" y="11" width="31" height="23">
<path d="M3.75 11.298H33.1875V33.648H3.75V11.298Z" fill="white"/>
</mask>
<g mask="url(#mask1_4_880)">
<path fill-rule="evenodd" clip-rule="evenodd" d="M28.827 23.2905C28.827 24.495 27.8505 25.4715 26.646 25.4715H10.2915C9.087 25.4715 8.1105 24.4965 8.1105 23.2905V16.7505C8.1105 15.546 9.087 14.5695 10.2915 14.5695H26.646C27.8505 14.5695 28.827 15.5445 28.827 16.749V23.2905ZM31.005 11.298H5.931C4.725 11.298 3.75 12.273 3.75 13.479V31.4685C3.75 32.673 4.725 33.6495 5.931 33.6495H31.005C32.2095 33.6495 33.186 32.673 33.186 31.4685V13.479C33.186 12.2745 32.211 11.298 31.005 11.298Z" fill="#E4E3D7"/>
</g>
<mask id="mask2_4_880" style="mask-type:luminance" maskUnits="userSpaceOnUse" x="5" y="33" width="9" height="3">
<path d="M5.93103 33.6495H13.0185V35.829H5.93103V33.6495Z" fill="white"/>
</mask>
<g mask="url(#mask2_4_880)">
<path fill-rule="evenodd" clip-rule="evenodd" d="M13.0185 33.6495V34.74C13.0185 34.8832 12.9903 35.025 12.9355 35.1573C12.8807 35.2896 12.8004 35.4098 12.6991 35.5111C12.5979 35.6124 12.4777 35.6927 12.3453 35.7475C12.213 35.8023 12.0712 35.8305 11.928 35.8305H7.02153C6.73231 35.8305 6.45494 35.7156 6.25043 35.5111C6.04592 35.3066 5.93103 35.0292 5.93103 34.74V33.6495" fill="#7F727B"/>
</g>
<mask id="mask3_4_880" style="mask-type:luminance" maskUnits="userSpaceOnUse" x="23" y="33" width="9" height="3">
<path d="M23.9205 33.6495H31.008V35.829H23.9205V33.6495Z" fill="white"/>
</mask>
<g mask="url(#mask3_4_880)">
<path fill-rule="evenodd" clip-rule="evenodd" d="M31.008 33.6495V34.74C31.008 35.0292 30.8931 35.3066 30.6886 35.5111C30.4841 35.7156 30.2068 35.8305 29.9175 35.8305H25.0125C24.8692 35.8307 24.7272 35.8026 24.5948 35.7479C24.4623 35.6932 24.3419 35.6129 24.2405 35.5116C24.139 35.4104 24.0586 35.2901 24.0037 35.1577C23.9488 35.0253 23.9205 34.8833 23.9205 34.74V33.6495" fill="#7F727B"/>
</g>
<path fill-rule="evenodd" clip-rule="evenodd" d="M8.655 3.12H11.9265C12.3603 3.12 12.7764 3.29233 13.0832 3.5991C13.3899 3.90586 13.5623 4.32192 13.5623 4.75575C13.5623 5.18957 13.3899 5.60563 13.0832 5.9124C12.7764 6.21916 12.3603 6.3915 11.9265 6.3915H8.6565C8.44179 6.3915 8.22918 6.34921 8.03081 6.26704C7.83245 6.18487 7.6522 6.06444 7.50038 5.91262C7.34856 5.76079 7.22812 5.58055 7.14596 5.38218C7.06379 5.18382 7.0215 4.97121 7.0215 4.7565C7.0215 4.54178 7.06379 4.32918 7.14596 4.13081C7.22812 3.93244 7.34856 3.7522 7.50038 3.60038C7.6522 3.44855 7.83245 3.32812 8.03081 3.24595C8.22918 3.16379 8.44179 3.1215 8.6565 3.1215M3.75 2.5755V6.9375C3.75 8.142 4.725 9.1185 5.931 9.1185H18.4695V0.395996H5.9295C4.728 0.395996 3.75 1.371 3.75 2.5755Z" fill="#008D70"/>
<path fill-rule="evenodd" clip-rule="evenodd" d="M3.75 13.479V31.4685C3.75 32.673 4.7265 33.6495 5.931 33.6495H18.4695V25.47H10.29C9.0855 25.47 8.109 24.495 8.109 23.2905V16.749C8.109 15.5445 9.0855 14.568 10.29 14.568H18.468V11.298H5.928C4.728 11.298 3.75 12.273 3.75 13.4775" fill="#C7C7BD"/>
</svg>
