<svg width="37" height="36" viewBox="0 0 37 36" fill="none" xmlns="http://www.w3.org/2000/svg">
<path d="M23.1498 3.57346H13.8501C12.839 3.57346 12.0191 4.39336 12.0191 5.40451V8.28226H14.8136V7.02001C14.8136 6.44491 15.2798 5.97871 15.8549 5.97871H21.1442C21.7193 5.97871 22.1855 6.44491 22.1855 7.02001V8.28226H24.98V5.40451C24.9809 4.39336 24.161 3.57346 23.1498 3.57346ZM35.645 30.0308V17.5235H1.35498V30.0312C1.35498 31.3542 2.42778 32.427 3.75078 32.427H33.2492C34.5722 32.4266 35.645 31.3538 35.645 30.0308Z" fill="#0074BA"/>
<path d="M33.6227 8.28226H3.37731C2.05431 8.28226 0.981506 9.35506 0.981506 10.6781V22.1108C0.981506 22.2764 1.08006 22.4253 1.23261 22.4888C2.34591 22.9532 7.28511 24.7037 18.4996 24.7037C28.5476 24.7037 34.4363 22.9176 35.7409 22.4748C35.8218 22.4473 35.8921 22.395 35.9418 22.3254C35.9916 22.2558 36.0182 22.1724 36.0181 22.0869V10.6781C36.0181 9.35461 34.9457 8.28226 33.6227 8.28226Z" fill="#29ABE2"/>
<mask id="mask0_4_952" style="mask-type:luminance" maskUnits="userSpaceOnUse" x="0" y="8" width="37" height="25">
<path d="M36.0181 10.6781C36.0181 9.35506 34.9453 8.28226 33.6223 8.28226H3.37731C2.05431 8.28226 0.981506 9.35506 0.981506 10.6781V22.1108C0.981506 22.2764 1.08006 22.4253 1.23261 22.4888C1.26906 22.5041 1.31001 22.5207 1.35456 22.5387V30.0312C1.35456 31.3542 2.42736 32.427 3.75036 32.427H33.2488C34.5718 32.427 35.6446 31.3542 35.6446 30.0312V22.5072C35.6792 22.496 35.7112 22.4852 35.7409 22.4748C35.9069 22.4186 36.0176 22.2624 36.0176 22.0869V10.6781H36.0181Z" fill="white"/>
</mask>
<g mask="url(#mask0_4_952)">
<path d="M20.9215 25.4327C20.9215 25.8597 20.5858 26.2116 20.1592 26.2305C19.729 26.2494 19.148 26.2679 18.5 26.2679C17.8151 26.2679 17.2522 26.2512 16.8418 26.2332C16.4147 26.2143 16.0781 25.8629 16.0781 25.4354V24.6177H20.9215V25.4327Z" fill="#E6E6E6"/>
<path opacity="0.3" d="M33.9813 9.61652L3.75484 8.55497C2.43274 8.50862 1.32304 9.54272 1.27669 10.8653L0.865845 22.5567C0.865845 22.5567 5.36854 25.043 18.2916 25.497C29.7527 25.8993 35.8808 23.7866 35.8808 23.7866L36.2912 12.0951C36.338 10.7726 35.3034 9.66287 33.9813 9.61652Z" fill="white"/>
</g>
<path d="M33.6227 8.28226H3.37731C2.05431 8.28226 0.981506 9.35506 0.981506 10.6781V22.1108C0.981506 22.2764 1.08006 22.4253 1.23261 22.4888C2.34591 22.9532 7.28511 24.7037 18.4996 24.7037C28.5476 24.7037 34.4363 22.9176 35.7409 22.4748C35.8218 22.4473 35.8921 22.395 35.9418 22.3254C35.9916 22.2558 36.0182 22.1724 36.0181 22.0869V10.6781C36.0181 9.35461 34.9457 8.28226 33.6227 8.28226Z" fill="#29ABE2"/>
<path d="M21.6792 24.6667C21.6792 24.6667 20.2829 24.7464 18.5 24.7464C16.524 24.7464 15.3207 24.6667 15.3207 24.6667V21.6621C15.3207 21.2211 15.6785 20.8633 16.1195 20.8633H20.8809C21.3219 20.8633 21.6797 21.2211 21.6797 21.6621V24.6667H21.6792Z" fill="#FBB03B"/>
</svg>
