<svg width="37" height="36" viewBox="0 0 37 36" fill="none" xmlns="http://www.w3.org/2000/svg">
<path fill-rule="evenodd" clip-rule="evenodd" d="M14.059 15.183C14.059 16.3125 13.1425 17.229 12.013 17.229H6.89799C5.76849 17.229 4.85349 16.314 4.85349 15.183V4.95451C4.85349 3.82501 5.76849 2.90851 6.89799 2.90851H12.013C13.1425 2.90851 14.059 3.82501 14.059 4.95451V15.1845V15.183Z" fill="#979391"/>
<path fill-rule="evenodd" clip-rule="evenodd" d="M9.45549 2.91H6.89799C5.76849 2.91 4.85349 3.825 4.85349 4.9545V15.1845C4.85349 16.3125 5.76849 17.229 6.89799 17.229H9.45549V2.91Z" fill="#84807F"/>
<path fill-rule="evenodd" clip-rule="evenodd" d="M18.1495 5.466L4.85349 19.686V32.9235C4.85349 34.1415 5.84499 35.1285 7.06898 35.1285H29.23C30.454 35.1285 31.447 34.1415 31.447 32.9235V19.6875L18.1495 5.466Z" fill="#D8D7CC"/>
<path fill-rule="evenodd" clip-rule="evenodd" d="M4.85349 32.9235C4.85349 34.1415 5.84499 35.1285 7.06898 35.1285H18.1495V5.466L4.85349 19.686V32.9235Z" fill="#C7C7BD"/>
<mask id="mask0_4_835" style="mask-type:luminance" maskUnits="userSpaceOnUse" x="0" y="0" width="37" height="21">
<path d="M0.25 0.372009H36.049V20.829H0.25V0.372009Z" fill="white"/>
</mask>
<g mask="url(#mask0_4_835)">
<path fill-rule="evenodd" clip-rule="evenodd" d="M33.493 20.829C32.8375 20.829 32.1835 20.5785 31.684 20.079L18.1495 6.54601L4.615 20.079C4.37764 20.3164 4.09585 20.5047 3.78572 20.6331C3.47558 20.7616 3.14319 20.8277 2.8075 20.8277C2.47182 20.8277 2.13942 20.7616 1.82929 20.6331C1.51916 20.5047 1.23737 20.3164 1 20.079C0.520624 19.5996 0.251312 18.9494 0.251312 18.2715C0.251312 17.5936 0.520624 16.9434 1 16.464L16.342 1.1205C16.5794 0.883118 16.8611 0.69481 17.1713 0.566335C17.4814 0.43786 17.8138 0.371735 18.1495 0.371735C18.4852 0.371735 18.8176 0.43786 19.1277 0.566335C19.4379 0.69481 19.7197 0.883118 19.957 1.1205L35.3005 16.464C35.6585 16.8214 35.9025 17.277 36.0014 17.7731C36.1003 18.2692 36.0499 18.7835 35.8563 19.2509C35.6628 19.7183 35.3349 20.1177 34.9142 20.3987C34.4935 20.6796 33.9989 20.8294 33.493 20.829Z" fill="#F05A4E"/>
</g>
<path fill-rule="evenodd" clip-rule="evenodd" d="M22.24 31.5495C22.24 32.397 21.5545 33.084 20.707 33.084H15.592C15.1853 33.0836 14.7954 32.9218 14.5079 32.634C14.2205 32.3463 14.059 31.9562 14.059 31.5495V20.298C14.059 19.4505 14.7445 18.7635 15.592 18.7635H20.707C21.5545 18.7635 22.2415 19.4505 22.2415 20.298V31.548L22.24 31.5495Z" fill="#F05A4E"/>
<path fill-rule="evenodd" clip-rule="evenodd" d="M18.1495 18.7635H15.592C14.7445 18.7635 14.059 19.4505 14.059 20.298V31.548C14.059 32.3955 14.7445 33.0825 15.592 33.0825H18.1495V18.765V18.7635Z" fill="#D95247"/>
<mask id="mask1_4_835" style="mask-type:luminance" maskUnits="userSpaceOnUse" x="0" y="0" width="19" height="21">
<path d="M0.25 0.372009H18.1495V20.829H0.25V0.372009Z" fill="white"/>
</mask>
<g mask="url(#mask1_4_835)">
<path fill-rule="evenodd" clip-rule="evenodd" d="M16.342 1.12051L0.998502 16.464C0.519123 16.9436 0.24989 17.594 0.250031 18.272C0.250171 18.9501 0.519674 19.6004 0.999252 20.0798C1.47883 20.5591 2.1292 20.8284 2.80728 20.8282C3.48537 20.8281 4.13562 20.5586 4.615 20.079L18.1495 6.54601V0.372009C17.4955 0.372009 16.84 0.621009 16.342 1.12201" fill="#D95247"/>
</g>
</svg>
