<svg width="36" height="36" viewBox="0 0 36 36" fill="none" xmlns="http://www.w3.org/2000/svg">
<path fill-rule="evenodd" clip-rule="evenodd" d="M5.19 29.1585C4.4655 29.8815 5.2155 31.8045 5.9385 32.5275C6.663 33.2505 8.586 34.0005 9.309 33.2775C9.4013 33.1844 9.47556 33.0751 9.528 32.955L15.6405 26.1645L12.72 22.0035L5.19 29.1585Z" fill="#A9A9A9"/>
<mask id="mask0_4_911" style="mask-type:luminance" maskUnits="userSpaceOnUse" x="16" y="1" width="20" height="22">
<path d="M16.365 1.85999H35.694V22.062H16.3665L16.365 1.85999Z" fill="white"/>
</mask>
<g mask="url(#mask0_4_911)">
<path fill-rule="evenodd" clip-rule="evenodd" d="M35.595 5.421C35.4645 4.548 35.01 4.7325 34.779 5.103C34.545 5.4735 33.504 7.0485 33.0765 7.761C32.652 8.4705 31.608 9.8655 29.661 8.4885C27.633 7.053 28.3365 6.0525 28.692 5.379C29.046 4.704 30.1365 2.808 30.294 2.571C30.45 2.3325 30.267 1.6395 29.6385 1.929C29.01 2.2215 25.182 3.741 24.6495 5.9205C24.1095 8.142 25.104 10.125 23.1495 12.096L16.365 18.5385L19.332 22.0635L26.0805 14.5635C26.778 13.863 28.2645 13.1835 29.6115 13.4895C32.496 14.142 34.0695 13.0575 35.0175 11.268C35.865 9.666 35.7255 6.294 35.595 5.421Z" fill="#A9A9A9"/>
</g>
<path fill-rule="evenodd" clip-rule="evenodd" d="M12.72 22.0035L15.6405 26.1645L19.3335 22.062L16.365 18.54L12.72 22.0035Z" fill="#A9A9A9"/>
<mask id="mask1_4_911" style="mask-type:luminance" maskUnits="userSpaceOnUse" x="5" y="4" width="31" height="30">
<path d="M5.8725 4.79398H35.694V33.5715H5.8725V4.79398Z" fill="white"/>
</mask>
<g mask="url(#mask1_4_911)">
<path fill-rule="evenodd" clip-rule="evenodd" d="M5.9385 32.5275C6.663 33.2505 8.586 34.0005 9.309 33.2775C9.402 33.1845 26.082 14.565 26.082 14.565C26.7795 13.863 28.2645 13.185 29.613 13.4895C32.4975 14.142 34.071 13.0575 35.019 11.268C35.8665 9.66598 35.727 6.29399 35.5965 5.42099C35.4645 4.54799 35.0115 4.73249 34.779 5.10299C34.545 5.47348 33.504 7.04699 33.0765 7.76099C32.652 8.47048 31.608 9.86548 29.661 8.48848C29.6055 8.44948 29.5605 8.41348 29.511 8.37448L5.871 32.454L5.937 32.5275" fill="#979391"/>
</g>
<path fill-rule="evenodd" clip-rule="evenodd" d="M16.365 18.54L12.72 22.0035L13.506 23.1225L17.238 19.575L16.365 18.54Z" fill="#979391"/>
<path fill-rule="evenodd" clip-rule="evenodd" d="M15.6405 26.1645L19.3335 22.062L18.5595 21.144L14.853 25.0425L15.6405 26.1645Z" fill="#84807F"/>
<path fill-rule="evenodd" clip-rule="evenodd" d="M22.3845 15.903C22.3045 15.8188 22.2088 15.7513 22.1027 15.7041C21.9966 15.657 21.8823 15.6313 21.7663 15.6283C21.6502 15.6254 21.5348 15.6454 21.4264 15.6871C21.3181 15.7288 21.2191 15.7915 21.135 15.8715L17.238 19.5765L18.558 21.144L22.383 17.121C22.5389 16.9566 22.6259 16.7386 22.6259 16.512C22.6259 16.2854 22.5389 16.0674 22.383 15.903M7.131 29.184C7.00355 29.3113 6.90244 29.4625 6.83342 29.629C6.76441 29.7954 6.72886 29.9738 6.72879 30.154C6.72872 30.3341 6.76413 30.5125 6.83302 30.679C6.9019 30.8455 7.0029 30.9968 7.13025 31.1242C7.2576 31.2517 7.4088 31.3528 7.57523 31.4218C7.74166 31.4908 7.92005 31.5264 8.10022 31.5265C8.28039 31.5265 8.45881 31.4911 8.62529 31.4222C8.79177 31.3533 8.94305 31.2523 9.0705 31.125L14.853 25.0425L13.506 23.1225L7.131 29.184Z" fill="#979391"/>
<path fill-rule="evenodd" clip-rule="evenodd" d="M17.238 19.575L13.506 23.1225L14.1435 24.03L17.8275 20.2755L17.238 19.575ZM7.131 31.173C7.26145 31.2973 7.41512 31.3947 7.58322 31.4595C7.75133 31.5244 7.93057 31.5555 8.1107 31.551C8.29083 31.5466 8.46832 31.5066 8.63301 31.4335C8.7977 31.3604 8.94636 31.2556 9.0705 31.125L14.853 25.0425L14.1435 24.03L7.131 31.173Z" fill="#84807F"/>
<path fill-rule="evenodd" clip-rule="evenodd" d="M22.3845 15.903C22.3408 15.8576 22.2926 15.8169 22.2405 15.7815L17.8275 20.2755L18.5595 21.144L16.6245 23.1795L22.3845 17.1195C22.54 16.9552 22.6266 16.7375 22.6266 16.5112C22.6266 16.285 22.54 16.0673 22.3845 15.903Z" fill="#84807F"/>
<path fill-rule="evenodd" clip-rule="evenodd" d="M17.8275 20.2755L14.142 24.03L14.853 25.0425L16.623 23.1795L18.558 21.144L17.8275 20.2755Z" fill="#716E6C"/>
<path fill-rule="evenodd" clip-rule="evenodd" d="M12.804 10.8405C10.0845 6.603 21.4515 2.268 19.6875 2.2245C18.7905 2.202 15.189 2.16 14.652 2.217C12.471 2.4465 8.6055 5.034 7.227 5.9745C5.427 7.203 4.752 7.9185 4.638 8.0175C4.1295 8.46 4.557 9.4815 3.633 10.284C2.655 11.136 2.046 10.494 1.482 10.9845C1.2 11.2305 0.417001 11.814 0.192001 12.0105C-0.0359993 12.207 -0.0764993 12.54 0.154501 12.8055C0.154501 12.8055 2.2995 15.1605 2.4825 15.3675C2.6625 15.576 3.1455 15.7515 3.447 15.4875L4.6515 14.439C4.785 14.325 4.566 12.984 5.256 12.4515C6.843 11.229 8.415 11.0805 10.1715 13.098C10.1715 13.098 21.8025 28.461 25.3335 32.5485C25.341 32.5575 25.356 32.559 25.3635 32.568L25.5435 32.775C26.019 33.3135 26.8005 33.4005 27.2865 32.97L29.8515 30.705C30.3405 30.276 30.462 29.376 29.976 28.8465C25.77 24.264 12.804 10.8405 12.804 10.8405Z" fill="#D2B879"/>
<path fill-rule="evenodd" clip-rule="evenodd" d="M10.1715 13.098C8.415 11.0805 6.843 11.229 5.256 12.45C4.566 12.9825 4.785 14.325 4.6515 14.4375L3.447 15.4875C3.147 15.75 2.6625 15.5745 2.4825 15.3675C1.70814 14.511 0.932134 13.656 0.1545 12.8025C-0.0765 12.5385 -0.036 12.2055 0.1905 12.009C0.4155 11.814 1.2 11.229 1.482 10.983C2.046 10.4925 2.655 11.1345 3.633 10.2825C4.557 9.47997 4.128 8.45847 4.638 8.01747C4.752 7.91697 5.4255 7.20147 7.2255 5.97297C8.6055 5.03247 12.471 2.44647 14.652 2.21547C15.189 2.15847 18.7905 2.20047 19.6875 2.22297C21.4515 2.26797 10.0845 6.60147 12.804 10.839L10.1715 13.098Z" fill="#ADAEA9"/>
<path fill-rule="evenodd" clip-rule="evenodd" d="M10.1715 13.098C10.1715 13.098 21.8025 28.461 25.3335 32.547C25.341 32.5575 25.356 32.5605 25.3635 32.568L25.5435 32.775C26.019 33.3135 26.8005 33.4005 27.2865 32.97L28.5135 31.887L6.9225 6.1875C5.3595 7.2825 4.7445 7.926 4.638 8.0175C4.128 8.46 4.557 9.4815 3.633 10.284C2.655 11.136 2.046 10.494 1.482 10.9845C1.2 11.232 0.417001 11.814 0.192001 12.0105C-0.0359993 12.207 -0.0764993 12.54 0.154501 12.8055C0.154501 12.8055 2.2995 15.1605 2.4825 15.3675C2.6625 15.576 3.1455 15.7515 3.447 15.4875L4.6515 14.439C4.785 14.325 4.566 12.984 5.256 12.4515C6.843 11.229 8.415 11.0805 10.1715 13.0965" fill="#C3A76D"/>
<path fill-rule="evenodd" clip-rule="evenodd" d="M10.1715 13.098L11.6565 11.823L6.9225 6.1875C5.3595 7.2825 4.7445 7.926 4.638 8.0175C4.128 8.46 4.557 9.4815 3.633 10.284C2.655 11.136 2.046 10.494 1.482 10.9845C1.2 11.232 0.417001 11.814 0.192001 12.0105C-0.0359993 12.207 -0.0764993 12.54 0.154501 12.8055C0.154501 12.8055 2.2995 15.1605 2.4825 15.3675C2.6625 15.576 3.1455 15.7515 3.447 15.4875L4.6515 14.439C4.785 14.325 4.566 12.984 5.256 12.4515C6.843 11.229 8.415 11.0805 10.1715 13.0965" fill="#979391"/>
<path fill-rule="evenodd" clip-rule="evenodd" d="M6.8955 11.619C3.4815 11.034 4.638 8.01898 4.638 8.01898C4.128 8.45998 4.557 9.48148 3.633 10.284C2.655 11.136 2.046 10.494 1.482 10.9845L4.6515 14.439C4.785 14.325 4.566 12.984 5.256 12.4515C5.802 12.0315 6.345 11.742 6.8955 11.619Z" fill="#84807F"/>
</svg>
