<svg width="37" height="36" viewBox="0 0 37 36" fill="none" xmlns="http://www.w3.org/2000/svg">
<mask id="mask0_4_966" style="mask-type:luminance" maskUnits="userSpaceOnUse" x="0" y="0" width="37" height="36">
<path d="M0.75 0.809998H36.729V35.9805H0.75V0.809998Z" fill="white"/>
</mask>
<g mask="url(#mask0_4_966)">
<path fill-rule="evenodd" clip-rule="evenodd" d="M36.729 18.3945C36.729 28.107 28.674 35.9805 18.7395 35.9805C8.805 35.9805 0.75 28.107 0.75 18.396C0.75 8.6835 8.805 0.809998 18.7395 0.809998C28.674 0.809998 36.729 8.6835 36.729 18.3945Z" fill="#E2E1D4"/>
</g>
<mask id="mask1_4_966" style="mask-type:luminance" maskUnits="userSpaceOnUse" x="17" y="0" width="1" height="2">
<path d="M17.5515 0.808502H17.964V1.041H17.5515V0.808502Z" fill="white"/>
</mask>
<g mask="url(#mask1_4_966)">
<path fill-rule="evenodd" clip-rule="evenodd" d="M17.5965 0.847498C17.7045 0.841498 17.811 0.832498 17.919 0.829498C17.811 0.833998 17.706 0.841498 17.5965 0.847498Z" fill="#020303"/>
</g>
<mask id="mask2_4_966" style="mask-type:luminance" maskUnits="userSpaceOnUse" x="18" y="0" width="1" height="2">
<path d="M18.54 0.808502H18.954V1.0125H18.54V0.808502Z" fill="white"/>
</mask>
<g mask="url(#mask2_4_966)">
<path fill-rule="evenodd" clip-rule="evenodd" d="M18.852 0.811502L18.7395 0.808502L18.6435 0.811502L18.7395 0.810002L18.852 0.811502Z" fill="#020303"/>
</g>
<path fill-rule="evenodd" clip-rule="evenodd" d="M17.439 18.399L8.35651 23.637C8.59051 24.009 8.83951 24.369 9.10651 24.717L18.0735 19.545V30.405C18.51 30.4995 18.9555 30.5745 19.4055 30.633V19.56L31.47 26.6955L32.16 25.5825L20.0385 18.4125L32.487 11.232L31.8105 10.11L19.4055 17.265V2.36249H18.0735V17.25L7.00351 10.7025C6.84751 11.1225 6.71551 11.55 6.59851 11.985L17.439 18.399Z" fill="#C7C7BD"/>
<path fill-rule="evenodd" clip-rule="evenodd" d="M34.9155 22.8135L30.732 25.173V27.6555C32.4561 26.3586 33.8826 24.7076 34.9155 22.8135ZM30.732 31.4985V31.509C32.9169 29.6026 34.5972 27.186 35.6235 24.474C34.5967 27.1829 32.917 29.5963 30.7335 31.5" fill="#7F727B"/>
<path fill-rule="evenodd" clip-rule="evenodd" d="M36.729 18.3945C36.729 17.892 36.702 17.3955 36.66 16.9035C36.5041 18.9751 35.9089 20.9898 34.914 22.8135L36.348 22.0035C36.597 20.8395 36.729 19.6335 36.729 18.3945Z" fill="#D8D7CC"/>
<path fill-rule="evenodd" clip-rule="evenodd" d="M35.8995 23.682L35.9295 23.5875C36.0945 23.0685 36.234 22.5405 36.348 22.005L34.914 22.8135C33.8815 24.7074 32.4555 26.3584 30.732 27.6555V31.4985C33.1294 29.408 34.9152 26.7067 35.8995 23.682Z" fill="#6C6068"/>
<path fill-rule="evenodd" clip-rule="evenodd" d="M21.396 30.762C20.279 30.761 19.1652 30.6414 18.0735 30.405C14.5025 29.6373 11.3224 27.621 9.105 24.7185C8.83994 24.3695 8.59021 24.0092 8.3565 23.6385C7.14996 21.7321 6.40011 19.5728 6.16542 17.3289C5.93073 15.0851 6.21754 12.8173 7.0035 10.7025C8.346 7.08301 11.0745 4.11301 14.5665 2.40751L13.2285 1.65451C5.991 3.93001 0.75 10.563 0.75 18.3945C0.75 28.107 8.805 35.979 18.7395 35.979C23.3475 35.979 27.549 34.284 30.732 31.4985V27.6555C28.0415 29.6804 24.7633 30.7712 21.396 30.762Z" fill="#D8D7CC"/>
<path fill-rule="evenodd" clip-rule="evenodd" d="M5.319 11.2275L6.5985 11.985C6.7155 11.55 6.8475 11.121 7.0035 10.7025L6.0075 10.113L5.319 11.2275Z" fill="#CCCBBE"/>
<path fill-rule="evenodd" clip-rule="evenodd" d="M5.319 11.2275L6.5985 11.985C6.7155 11.55 6.8475 11.121 7.0035 10.7025L6.0075 10.113L5.319 11.2275Z" fill="#BCBCB3"/>
<path fill-rule="evenodd" clip-rule="evenodd" d="M18.0735 34.4475H19.4055V30.6315C18.9555 30.5745 18.51 30.4995 18.0735 30.405V34.4475Z" fill="#CCCBBE"/>
<path fill-rule="evenodd" clip-rule="evenodd" d="M18.0735 34.4475H19.4055V30.6315C18.9555 30.5745 18.51 30.4995 18.0735 30.405V34.4475Z" fill="#BCBCB3"/>
<path fill-rule="evenodd" clip-rule="evenodd" d="M4.992 25.578L5.667 26.7L9.105 24.72C8.83971 24.3712 8.58997 24.0109 8.3565 23.64L4.992 25.578Z" fill="#CCCBBE"/>
<path fill-rule="evenodd" clip-rule="evenodd" d="M4.992 25.578L5.667 26.7L9.105 24.72C8.83971 24.3712 8.58997 24.0109 8.3565 23.64L4.992 25.578Z" fill="#BCBCB3"/>
<path fill-rule="evenodd" clip-rule="evenodd" d="M14.5665 2.409L18.7395 4.764L24.2505 1.653C22.9548 1.24783 21.6181 0.987737 20.265 0.877502C18.2845 1.01761 16.3494 1.53703 14.565 2.4075" fill="#7F727B"/>
<path fill-rule="evenodd" clip-rule="evenodd" d="M6.74549 11.5425V5.30099C3.89522 7.78001 1.9244 11.1154 1.12799 14.808L6.74549 11.637V11.5425ZM6.74549 25.173L1.12799 22.002C1.9244 25.6946 3.89522 29.03 6.74549 31.509V25.173ZM18.7395 31.995L13.1835 35.13C14.934 35.685 16.7985 35.9895 18.7395 35.9895C20.679 35.9895 22.545 35.6865 24.2955 35.1315L18.7395 31.995Z" fill="#6C6068"/>
<path fill-rule="evenodd" clip-rule="evenodd" d="M18.7395 11.5425L12.7425 14.925V21.8415L18.7395 25.2255L24.735 21.8415V14.9265L18.7395 11.5425ZM30.732 11.637L36.351 14.808C35.5543 11.1152 33.5829 7.77972 30.732 5.30099V11.637Z" fill="#7F727B"/>
</svg>
