<svg width="37" height="36" viewBox="0 0 37 36" fill="none" xmlns="http://www.w3.org/2000/svg">
<path fill-rule="evenodd" clip-rule="evenodd" d="M0.5 12.8565C0.5 13.9515 1.388 14.841 2.4845 14.841H5.4605C5.98682 14.841 6.49159 14.6319 6.86375 14.2597C7.23592 13.8876 7.445 13.3828 7.445 12.8565C7.445 12.3302 7.23592 11.8254 6.86375 11.4532C6.49159 11.0811 5.98682 10.872 5.4605 10.872H2.4845C1.3895 10.872 0.5 11.7615 0.5 12.8565ZM29.273 12.8565C29.273 13.9515 30.161 14.841 31.2575 14.841H34.2335C34.7598 14.841 35.2646 14.6319 35.6368 14.2597C36.0089 13.8876 36.218 13.3828 36.218 12.8565C36.218 12.3302 36.0089 11.8254 35.6368 11.4532C35.2646 11.0811 34.7598 10.872 34.2335 10.872H31.2575C30.1625 10.872 29.273 11.7615 29.273 12.8565Z" fill="#00997A"/>
<mask id="mask0_4_856" style="mask-type:luminance" maskUnits="userSpaceOnUse" x="1" y="3" width="34" height="27">
<path d="M1.98798 3.35999H34.73V29.226H1.98798V3.35999Z" fill="white"/>
</mask>
<g mask="url(#mask0_4_856)">
<path fill-rule="evenodd" clip-rule="evenodd" d="M34.7105 20.595C34.649 20.0085 34.1795 16.4775 33.5105 15.4455L32.2505 11.2965C32.2505 11.2965 30.4775 4.881 26.915 4.1325C24.47 3.6195 22.325 3.348 18.359 3.36C14.393 3.348 12.248 3.6195 9.79998 4.1325C6.23748 4.881 4.46748 11.2965 4.46748 11.2965L3.20748 15.4455C2.53698 16.4775 2.06748 20.0085 2.00598 20.595H1.99848V28.665L1.98798 29.226H34.73L34.718 28.665V20.595H34.7105Z" fill="#009F7F"/>
</g>
<mask id="mask1_4_856" style="mask-type:luminance" maskUnits="userSpaceOnUse" x="18" y="3" width="17" height="27">
<path d="M18.359 3.35999H34.73V29.226H18.359V3.35999Z" fill="white"/>
</mask>
<g mask="url(#mask1_4_856)">
<path fill-rule="evenodd" clip-rule="evenodd" d="M33.509 15.4455L32.249 11.2965C32.249 11.2965 30.479 4.881 26.9165 4.1325C24.47 3.6195 22.325 3.348 18.359 3.36V29.226H34.73L34.718 28.665V20.595H34.7105C34.649 20.0085 34.178 16.4775 33.509 15.4455Z" fill="#008D70"/>
</g>
<path fill-rule="evenodd" clip-rule="evenodd" d="M6.45351 23.274C5.92699 23.274 5.42203 23.0648 5.04973 22.6925C4.67742 22.3202 4.46826 21.8153 4.46826 21.2887C4.46826 20.7622 4.67742 20.2573 5.04973 19.885C5.42203 19.5127 5.92699 19.3035 6.45351 19.3035C6.98003 19.3035 7.48499 19.5127 7.8573 19.885C8.2296 20.2573 8.43876 20.7622 8.43876 21.2887C8.43876 21.8153 8.2296 22.3202 7.8573 22.6925C7.48499 23.0648 6.98003 23.274 6.45351 23.274Z" fill="#E4E3D7"/>
<path fill-rule="evenodd" clip-rule="evenodd" d="M7.50952 14.841C6.85402 14.841 6.90652 14.1585 6.90652 14.1585C6.90652 14.1585 8.66452 8.8575 8.77702 8.55C8.83879 8.37424 8.94905 8.21955 9.09504 8.10382C9.24103 7.98808 9.4168 7.91603 9.60202 7.896H27.017C27.095 7.896 27.632 7.9815 27.839 8.55C28.4671 10.4185 29.0906 12.2885 29.7095 14.16C29.7095 14.16 29.8625 14.841 29.207 14.841H7.50952Z" fill="#2E4A74"/>
<path fill-rule="evenodd" clip-rule="evenodd" d="M28.775 21.291C28.775 20.7643 28.9843 20.2591 29.3567 19.8867C29.7292 19.5142 30.2343 19.305 30.761 19.305C31.2877 19.305 31.7929 19.5142 32.1653 19.8867C32.5378 20.2591 32.747 20.7643 32.747 21.291C32.747 21.8175 32.5379 22.3225 32.1656 22.6948C31.7933 23.0671 31.2883 23.2762 30.7618 23.2762C30.2353 23.2762 29.7303 23.0671 29.358 22.6948C28.9857 22.3225 28.775 21.8175 28.775 21.291Z" fill="#E4E3D7"/>
<path fill-rule="evenodd" clip-rule="evenodd" d="M29.7695 29.2275V30.687C29.7695 32.073 30.8795 33.195 32.249 33.195C33.6185 33.195 34.73 32.073 34.73 30.687V29.2275M1.98798 29.2275V30.687C1.98798 32.073 3.09798 33.195 4.46898 33.195C5.83848 33.195 6.94848 32.073 6.94848 30.687V29.2275" fill="#2A456D"/>
<path fill-rule="evenodd" clip-rule="evenodd" d="M25.8005 25.2585C25.8005 26.3535 24.9785 27.243 23.963 27.243H12.755C11.7395 27.243 10.9175 26.355 10.9175 25.2585C10.9175 24.1635 11.7395 23.274 12.755 23.274H23.963C24.9785 23.274 25.8005 24.162 25.8005 25.2585Z" fill="#006750"/>
<path fill-rule="evenodd" clip-rule="evenodd" d="M18.359 21.2895V14.8395H10.025C10.232 16.458 11.4335 21.2895 18.3575 21.2895" fill="#008D70"/>
<path fill-rule="evenodd" clip-rule="evenodd" d="M18.359 21.2895V14.8395H26.6915C26.483 16.458 25.283 21.2895 18.359 21.2895Z" fill="#009F7F"/>
<path fill-rule="evenodd" clip-rule="evenodd" d="M8.98401 8.208L14.129 13.353H17.4815L12.0245 7.896H9.60201C9.54201 7.896 9.22701 7.944 8.98401 8.208ZM19.697 13.353H21.7085L16.2515 7.896H14.24L19.697 13.353Z" fill="#2A8F9E"/>
</svg>
