<svg width="37" height="36" viewBox="0 0 37 36" fill="none" xmlns="http://www.w3.org/2000/svg">
<path d="M18.8002 6.99298H11.2717C10.4531 6.99298 9.78936 7.65673 9.78936 8.47528V10.8049H12.052V9.78298C12.052 9.31723 12.4295 8.94013 12.8948 8.94013H17.1766C17.6423 8.94013 18.0194 9.31768 18.0194 9.78298V10.8049H20.282V8.47528C20.2825 7.65628 19.6187 6.99298 18.8002 6.99298ZM28.9153 28.4112V18.2857H1.15656V28.4112C1.15656 29.4822 2.02506 30.3507 3.09606 30.3507H26.9758C28.0468 30.3502 28.9153 29.4822 28.9153 28.4112Z" fill="#0274B9"/>
<path d="M27.2781 10.8049H2.79363C1.72263 10.8049 0.854126 11.6734 0.854126 12.7444V21.9996C0.854126 22.1337 0.933776 22.2543 1.05753 22.3056C1.95888 22.6818 5.95713 24.0984 15.0359 24.0984C23.1701 24.0984 27.9369 22.6525 28.9931 22.2943C29.0587 22.2721 29.1156 22.2298 29.1559 22.1734C29.1962 22.1171 29.2178 22.0495 29.2176 21.9802V12.744C29.2176 11.673 28.3491 10.8049 27.2781 10.8049Z" fill="#29A9E1"/>
<mask id="mask0_4_1169" style="mask-type:luminance" maskUnits="userSpaceOnUse" x="0" y="10" width="30" height="21">
<path d="M29.2176 12.744C29.2176 11.673 28.3491 10.8045 27.2781 10.8045H2.79363C1.72263 10.8045 0.854126 11.673 0.854126 12.744V21.9992C0.854126 22.1333 0.933776 22.2539 1.05753 22.3052C1.08723 22.3173 1.12008 22.3308 1.15653 22.3457V28.4112C1.15653 29.4822 2.02503 30.3507 3.09603 30.3507H26.9757C28.0467 30.3507 28.9152 29.4822 28.9152 28.4112V22.32C28.9431 22.3106 28.9692 22.302 28.9935 22.2939C29.1281 22.2485 29.2176 22.122 29.2176 21.9798V12.744Z" fill="white"/>
</mask>
<g mask="url(#mask0_4_1169)">
<path d="M16.9965 24.6888C16.9965 25.0349 16.7247 25.3193 16.3791 25.3346C16.0308 25.3499 15.5605 25.3647 15.0358 25.3647C14.4814 25.3647 14.0256 25.3512 13.6935 25.3368C13.3474 25.3215 13.0752 25.0371 13.0752 24.6911V24.0291H16.996V24.6888H16.9965Z" fill="#E5E5E4"/>
<path d="M27.5684 11.885L3.09915 11.0255C2.0286 10.9877 1.1304 11.8251 1.09305 12.8957L0.760498 22.3605C0.760498 22.3605 4.4055 24.3734 14.8671 24.7406C24.1452 25.0664 29.106 23.3559 29.106 23.3559L29.4386 13.8915C29.4764 12.821 28.6389 11.9228 27.5684 11.885Z" fill="white"/>
</g>
<path d="M27.2781 10.8049H2.79363C1.72263 10.8049 0.854126 11.6734 0.854126 12.7444V21.9996C0.854126 22.1337 0.933776 22.2543 1.05753 22.3056C1.95888 22.6818 5.95713 24.0984 15.0359 24.0984C23.1701 24.0984 27.9369 22.6525 28.9931 22.2943C29.0587 22.2721 29.1156 22.2298 29.1559 22.1734C29.1962 22.1171 29.2178 22.0495 29.2176 21.9802V12.744C29.2176 11.673 28.3491 10.8049 27.2781 10.8049Z" fill="#29A9E1"/>
<path d="M17.6099 24.0683C17.6099 24.0683 16.4795 24.1331 15.0359 24.1331C13.4362 24.1331 12.4619 24.0683 12.4619 24.0683V21.636C12.4619 21.2792 12.7513 20.9894 13.1086 20.9894H16.9633C17.3201 20.9894 17.6099 21.2787 17.6099 21.636V24.0683Z" fill="#FAAF3A"/>
<g opacity="0.3">
<path d="M26.8327 24.1623C31.3521 24.1623 35.0159 20.4058 35.0159 15.772C35.0159 11.1382 31.3521 7.38177 26.8327 7.38177C22.3132 7.38177 18.6494 11.1382 18.6494 15.772C18.6494 20.4058 22.3132 24.1623 26.8327 24.1623Z" fill="white"/>
</g>
<mask id="mask1_4_1169" style="mask-type:luminance" maskUnits="userSpaceOnUse" x="18" y="6" width="19" height="18">
<path d="M27.5414 23.9283C32.2932 23.9283 36.1454 20.0761 36.1454 15.3243C36.1454 10.5724 32.2932 6.72028 27.5414 6.72028C22.7895 6.72028 18.9374 10.5724 18.9374 15.3243C18.9374 20.0761 22.7895 23.9283 27.5414 23.9283Z" fill="white"/>
</mask>
<g mask="url(#mask1_4_1169)">
<path d="M27.5414 23.6034C32.1138 23.6034 35.8205 19.8967 35.8205 15.3243C35.8205 10.7518 32.1138 7.04517 27.5414 7.04517C22.9689 7.04517 19.2623 10.7518 19.2623 15.3243C19.2623 19.8967 22.9689 23.6034 27.5414 23.6034Z" fill="url(#paint0_radial_4_1169)"/>
</g>
<mask id="mask2_4_1169" style="mask-type:luminance" maskUnits="userSpaceOnUse" x="18" y="6" width="19" height="18">
<path d="M27.5414 23.9283C32.2932 23.9283 36.1454 20.0761 36.1454 15.3243C36.1454 10.5724 32.2932 6.72028 27.5414 6.72028C22.7895 6.72028 18.9374 10.5724 18.9374 15.3243C18.9374 20.0761 22.7895 23.9283 27.5414 23.9283Z" fill="white"/>
</mask>
<g mask="url(#mask2_4_1169)">
<path d="M36.8487 15.3801C36.8487 18.4153 36.8478 21.4506 36.8523 24.4858C36.8523 24.6087 36.8298 24.6348 36.7047 24.6348C30.6221 24.6307 24.5394 24.6307 18.4568 24.6357C18.3155 24.6357 18.3042 24.5934 18.3042 24.4737C18.3074 18.3969 18.3074 12.3205 18.3033 6.24373C18.3033 6.11503 18.3276 6.08533 18.4599 6.08578C24.5367 6.08983 30.6131 6.09028 36.6899 6.08533C36.8343 6.08533 36.8519 6.12763 36.8519 6.25633C36.8478 9.29743 36.8487 12.339 36.8487 15.3801ZM18.8861 15.3531C18.8852 20.1451 22.7687 24.0543 27.5414 24.0511C29.9426 24.0493 32.0252 23.2092 33.7136 21.5082C35.7431 19.4634 36.5279 16.9758 36.1724 14.1174C35.7089 10.3878 32.3645 6.68563 27.5882 6.67213C22.7948 6.65818 18.8937 10.5246 18.8861 15.3531Z" fill="white"/>
<path d="M18.8861 15.3531C18.8938 10.5246 22.7948 6.65817 27.5882 6.67167C32.3641 6.68517 35.7089 10.3873 36.1724 14.1169C36.5275 16.9753 35.7427 19.4629 33.7136 21.5077C32.0252 23.2087 29.9426 24.0493 27.5414 24.0507C22.7687 24.0543 18.8852 20.1451 18.8861 15.3531ZM22.7638 21.8412C22.7629 21.8497 22.762 21.8583 22.7606 21.8668C22.7683 21.865 22.7759 21.8637 22.7831 21.8619C22.7755 21.8556 22.7683 21.8493 22.7606 21.843C22.6576 21.7102 22.5554 21.5766 22.4515 21.4443C22.0892 20.9839 21.7279 20.5209 21.6518 19.9134C21.5875 19.399 21.3778 18.9702 21.0043 18.6021C20.7131 18.315 20.5606 17.9469 20.4715 17.5378C20.3401 16.9344 20.1542 16.3431 20.0093 15.7414C19.9297 15.4107 19.7465 15.1231 19.5089 14.8599C19.4567 14.9499 19.4684 15.025 19.4671 15.0948C19.45 16.2211 19.6169 17.3151 20.0449 18.3631C20.5088 19.4994 21.1766 20.4957 22.0879 21.3214C22.2989 21.5122 22.4933 21.7273 22.7638 21.8412ZM28.1426 7.29672C28.3294 7.50597 28.5251 7.69407 28.648 7.94247C28.7303 8.10897 28.7384 8.26107 28.6507 8.43747C28.4626 8.81367 28.1696 9.04857 27.7799 9.18987C27.4753 9.30012 27.1513 9.32082 26.8448 9.41217C26.3413 9.56202 25.8472 9.74157 25.3135 9.76677C25.1848 9.77307 25.1281 9.73302 25.1168 9.62097C25.106 9.51342 25.1132 9.40407 25.1101 9.29562C25.1015 9.01797 25.1866 8.75067 25.1938 8.47302C25.1983 8.30067 25.1146 8.24127 24.9796 8.23092C24.6416 8.20482 24.3113 8.24352 23.9981 8.38527C23.9135 8.42352 23.8753 8.48337 23.8492 8.57067C23.7542 8.88837 23.8667 9.15792 24.022 9.42387C24.0719 9.50982 24.1511 9.58497 24.1354 9.70107C24.0967 9.99357 24.0661 10.2874 24.0233 10.5795C23.9936 10.7838 23.8982 10.9534 23.7236 11.0749C23.405 11.2968 23.0644 11.4795 22.6904 11.5803C22.4668 11.6406 22.3003 11.7585 22.163 11.9344C22.0294 12.1054 21.9173 12.2953 21.7486 12.4353C21.3854 12.7368 21.0709 13.0851 20.7806 13.4532C20.2712 14.0989 20.3882 14.9602 21.2531 15.2694C21.7396 15.4431 22.1797 15.6987 22.6171 15.9651C22.883 16.1271 23.1008 16.3372 23.2885 16.5874C23.5054 16.8763 23.738 17.1522 24.0917 17.2944C24.2884 17.3736 24.4747 17.4793 24.6637 17.577C24.7856 17.6404 24.9265 17.7043 24.9836 17.8267C25.1083 18.0931 25.2239 18.3708 25.2181 18.6727C25.2014 19.5147 24.7519 20.1033 24.0908 20.5632C23.8744 20.7139 23.6489 20.8525 23.4703 21.0519C23.3222 21.217 23.2367 21.4024 23.2723 21.627C23.3033 21.8223 23.3425 22.0167 23.3812 22.2111C23.3956 22.2831 23.432 22.338 23.5004 22.3807C24.089 22.7506 24.7352 22.9842 25.3958 23.1804C25.9417 23.3428 26.5051 23.4045 27.0716 23.4499C28.0751 23.53 29.0584 23.4054 30.0074 23.1016C31.4681 22.6345 32.7146 21.82 33.7181 20.6491C34.9507 19.2114 35.5874 17.5396 35.6851 15.6546C35.708 15.214 35.6563 14.7789 35.6207 14.3419C35.6104 14.2137 35.4304 13.9612 35.3165 13.9626C35.1428 13.9648 35.1838 14.1444 35.1226 14.2407C35.1163 14.2506 35.1149 14.2632 35.1122 14.2749C35.051 14.5665 34.9502 14.8149 34.6172 14.908C34.4368 14.9584 34.4111 15.1425 34.5304 15.2937C34.5934 15.3738 34.6582 15.453 34.7225 15.5322C34.9696 15.8382 34.9718 16.0389 34.7081 16.3278C34.2518 16.8277 33.9197 17.383 33.8329 18.072C33.8005 18.3303 33.7289 18.5841 33.607 18.8257C33.4531 19.1304 33.2884 19.4319 33.2434 19.7856C33.2141 20.0133 33.1682 20.2545 33.0229 20.4466C32.639 20.9529 32.1535 21.33 31.5473 21.5316C31.1882 21.6508 31.0226 21.5617 30.8755 21.2134C30.8498 21.1527 30.8251 21.0915 30.8044 21.0289C30.6968 20.7099 30.6514 20.3697 30.479 20.0722C30.3373 19.8279 30.2986 19.5696 30.3575 19.2901C30.3908 19.1326 30.3985 18.9684 30.4034 18.8068C30.4205 18.2754 30.2252 17.7853 30.0578 17.2993C29.9125 16.8772 29.5367 16.7373 29.0998 16.8583C28.9715 16.8939 28.8437 16.9321 28.7096 16.9083C27.6535 16.7193 27.1508 15.8967 27.1234 14.8626C27.1166 14.5993 27.1643 14.3347 27.1882 14.0706C27.208 13.8523 27.2597 13.6435 27.3704 13.4518C27.5864 13.077 27.8605 12.7467 28.1489 12.4267C28.2763 12.2859 28.4396 12.2112 28.6187 12.1833C28.9706 12.1284 29.3099 12.0307 29.6528 11.9385C30.1969 11.7922 30.4714 11.7814 30.8917 12.3439C30.9637 12.4402 31.0361 12.5401 31.1252 12.6189C31.3138 12.7863 31.5185 12.8911 31.775 12.7413C31.9361 12.6472 32.104 12.6589 32.2723 12.7417C32.401 12.8052 32.5373 12.8538 32.671 12.9069C32.779 12.9501 32.891 12.9636 33.0062 12.9397C33.1804 12.9037 33.3091 12.7233 33.3014 12.5185C33.2947 12.3331 33.1795 12.2647 33.0098 12.2368C32.8861 12.2166 32.752 12.2337 32.6399 12.1648C32.5004 12.0789 32.3506 12.0465 32.1908 12.0667C31.996 12.0915 31.8691 11.9983 31.7746 11.8422C31.672 11.6725 31.5649 11.5047 31.4677 11.3319C31.3804 11.1766 31.2485 11.1154 31.078 11.1235C31.0199 11.1262 30.9407 11.1096 30.9155 11.1726C30.8863 11.2455 30.9583 11.295 31.0073 11.3328C31.1311 11.4282 31.2643 11.511 31.3903 11.6037C31.4564 11.6523 31.541 11.7022 31.5001 11.8057C31.4605 11.9056 31.3835 11.9736 31.2751 11.9947C31.2062 12.0082 31.1554 11.965 31.1788 11.9047C31.2512 11.7157 31.1171 11.6545 30.9961 11.5888C30.7319 11.4457 30.4624 11.3139 30.2126 11.1433C30.0448 11.0286 29.8567 11.0574 29.6965 11.191C29.561 11.304 29.4359 11.4309 29.3495 11.5816C29.1493 11.9304 28.877 11.9916 28.4441 11.8602C28.301 11.817 28.18 11.7535 28.1161 11.6037C27.9149 11.1294 28.1984 10.5565 28.6952 10.4296C28.8572 10.3882 29.0192 10.4049 29.1812 10.404C29.3333 10.4035 29.4656 10.372 29.5718 10.2541C29.6281 10.192 29.6893 10.1272 29.7613 10.0876C29.9507 9.98367 29.962 9.85092 29.8796 9.66552C29.7383 9.34512 29.8166 9.16332 30.1415 9.04272C30.3562 8.96307 30.569 8.88432 30.7729 8.77857C30.8935 8.71602 31.0226 8.70837 31.1554 8.76372C31.586 8.94372 32.0293 9.09132 32.432 9.33927C32.6287 9.46032 32.8618 9.50937 33.1489 9.47202C31.7035 8.15397 30.0574 7.41822 28.1426 7.29672Z" fill="#A6D0DE"/>
<path d="M22.7638 21.8412C22.4938 21.7274 22.2989 21.5118 22.0892 21.3219C21.1775 20.4966 20.5102 19.4999 20.0462 18.3636C19.6183 17.3156 19.4513 16.2216 19.4684 15.0953C19.4693 15.0255 19.4581 14.9504 19.5103 14.8604C19.7479 15.1236 19.931 15.4112 20.0107 15.7419C20.1556 16.3436 20.3414 16.9349 20.4728 17.5383C20.5619 17.9474 20.714 18.3155 21.0056 18.6026C21.3791 18.9702 21.5888 19.3991 21.6532 19.9139C21.7292 20.5209 22.0906 20.984 22.4528 21.4448C22.5568 21.5771 22.6589 21.7107 22.762 21.8435L22.7638 21.8412Z" fill="#3297D2"/>
<path d="M22.7606 21.843C22.7683 21.8493 22.7755 21.8556 22.7831 21.8619C22.7755 21.8637 22.7678 21.865 22.7606 21.8668C22.7615 21.8583 22.7624 21.8497 22.7638 21.8412L22.7606 21.843Z" fill="#3297D2"/>
</g>
<defs>
<radialGradient id="paint0_radial_4_1169" cx="0" cy="0" r="1" gradientUnits="userSpaceOnUse" gradientTransform="translate(25.4263 12.6286) scale(8.27897)">
<stop stop-color="#89CDEF"/>
<stop offset="1" stop-color="#3297D2"/>
</radialGradient>
</defs>
</svg>
