<svg width="121" height="36" viewBox="0 0 121 36" fill="none" xmlns="http://www.w3.org/2000/svg">
<mask id="mask0_4_1406" style="mask-type:luminance" maskUnits="userSpaceOnUse" x="0" y="0" width="121" height="36">
<path d="M0.970032 0H120.97V36H0.970032V0Z" fill="white"/>
</mask>
<g mask="url(#mask0_4_1406)">
<mask id="mask1_4_1406" style="mask-type:alpha" maskUnits="userSpaceOnUse" x="0" y="0" width="137" height="36">
<path d="M0.970032 0H136.526V36H0.970032V0Z" fill="white"/>
</mask>
<g mask="url(#mask1_4_1406)">
<path fill-rule="evenodd" clip-rule="evenodd" d="M111.413 0H10.532C10.164 0 9.80103 0 9.43403 0.002C9.12703 0.004 8.82203 0.009 8.51203 0.013C7.84403 0.028 7.16903 0.065 6.50203 0.172C5.16503 0.368 3.92903 0.937 2.97203 1.798C2.01303 2.658 1.38203 3.768 1.16503 4.968C1.04503 5.566 1.00203 6.168 0.985032 6.771C0.976032 7.047 0.975032 7.324 0.970032 7.6V28.403C0.975032 28.683 0.976032 28.953 0.985032 29.232C1.00203 29.835 1.04503 30.438 1.16503 31.034C1.28203 31.637 1.48003 32.202 1.79103 32.748C2.09603 33.284 2.49303 33.778 2.97403 34.201C3.44803 34.631 3.99703 34.988 4.59603 35.262C5.20803 35.542 5.83203 35.721 6.50303 35.83C7.16903 35.937 7.84403 35.972 8.51303 35.988C8.82303 35.995 9.12703 35.998 9.43303 35.998C9.80103 36 10.163 36 10.532 36H111.413C111.775 36 112.14 36 112.5 35.998C112.807 35.998 113.12 35.995 113.426 35.988C114.098 35.972 114.772 35.937 115.432 35.83C116.092 35.7279 116.736 35.5368 117.345 35.262C117.937 34.9933 118.484 34.6355 118.968 34.201C119.437 33.783 119.837 33.2925 120.151 32.748C120.454 32.208 120.664 31.63 120.772 31.034C120.896 30.438 120.934 29.835 120.959 29.232C120.962 28.953 120.962 28.682 120.962 28.403C120.97 28.076 120.97 27.751 120.97 27.419V8.582C120.97 8.253 120.97 7.926 120.962 7.6C120.962 7.324 120.962 7.047 120.959 6.77C120.934 6.169 120.896 5.566 120.772 4.969C120.661 4.36755 120.451 3.78867 120.151 3.256C119.837 2.70981 119.438 2.21728 118.968 1.797C118.483 1.36488 117.936 1.0076 117.345 0.737C116.736 0.463113 116.092 0.27305 115.432 0.172C114.768 0.0728642 114.098 0.02007 113.426 0.014C113.12 0.009 112.807 0.004 112.5 0.002C112.14 0 111.775 0 111.413 0Z" fill="#A9AAA9"/>
</g>
<path fill-rule="evenodd" clip-rule="evenodd" d="M9.54703 34.998C9.24203 34.998 8.94503 34.995 8.64303 34.988C8.01653 34.9814 7.39116 34.9333 6.77103 34.844C6.19918 34.757 5.64176 34.5928 5.11403 34.356C4.60417 34.1291 4.13257 33.8244 3.71603 33.453C3.30851 33.0995 2.96337 32.68 2.69503 32.212C2.43281 31.7548 2.24894 31.2569 2.15103 30.739C2.02903 30.141 1.99803 29.535 1.98503 29.072C1.97803 28.802 1.97303 28.532 1.97003 28.261V7.728C1.97003 7.728 1.98003 7.113 1.98503 6.933C1.99803 6.467 2.02903 5.861 2.15003 5.269C2.35183 4.21362 2.90099 3.25611 3.71003 2.549C4.53903 1.811 5.60903 1.323 6.76703 1.156C7.38914 1.0662 8.01651 1.01776 8.64503 1.011L9.54703 1H112.386L113.3 1.012C113.813 1.022 114.496 1.05 115.16 1.156C115.737 1.24268 116.299 1.40648 116.832 1.643C117.345 1.876 117.815 2.181 118.224 2.546C118.635 2.906 118.976 3.326 119.249 3.794C119.507 4.248 119.682 4.73 119.785 5.259C119.9 5.82 119.936 6.396 119.958 6.937C119.961 7.188 119.961 7.459 119.961 7.727C119.97 8.061 119.97 8.378 119.97 8.698V27.301C119.97 27.624 119.97 27.939 119.961 28.256C119.961 28.546 119.961 28.81 119.957 29.083C119.936 29.607 119.9 30.182 119.786 30.73C119.69 31.2514 119.508 31.753 119.246 32.214C118.976 32.6767 118.633 33.0928 118.23 33.446C117.813 33.819 117.341 34.1255 116.83 34.355C116.298 34.5933 115.736 34.7578 115.16 34.844C114.519 34.947 113.856 34.975 113.29 34.988C112.997 34.995 112.689 34.998 112.391 34.998L111.306 35L9.54703 34.998Z" fill="black"/>
<path fill-rule="evenodd" clip-rule="evenodd" d="M23.654 18.045C23.631 15.6 25.655 14.41 25.749 14.354C24.602 12.683 22.824 12.454 22.2 12.436C20.708 12.279 19.26 13.33 18.5 13.33C17.725 13.33 16.554 12.451 15.293 12.478C13.67 12.503 12.15 13.444 11.317 14.903C9.59703 17.879 10.88 22.253 12.527 24.659C13.35 25.837 14.313 27.154 15.574 27.107C16.806 27.056 17.267 26.32 18.754 26.32C20.23 26.32 20.662 27.107 21.947 27.077C23.27 27.056 24.103 25.893 24.899 24.704C25.851 23.354 26.233 22.024 26.249 21.956C26.217 21.945 23.679 20.975 23.654 18.045ZM21.225 10.855C21.888 10.025 22.342 8.897 22.216 7.751C21.256 7.794 20.056 8.415 19.365 9.227C18.753 9.941 18.207 11.113 18.348 12.214C19.426 12.295 20.534 11.671 21.225 10.855ZM35.467 22.747H38.802L37.158 17.906H37.112L35.467 22.747ZM39.238 24.124H35.031L34.021 27.108H32.238L36.224 16.069H38.076L42.061 27.108H40.248L39.238 24.124ZM48.97 23.084C48.97 21.455 48.127 20.384 46.843 20.384C45.581 20.384 44.732 21.477 44.732 23.084C44.732 24.706 45.581 25.792 46.842 25.792C48.127 25.792 48.97 24.728 48.97 23.084ZM50.668 23.084C50.668 25.584 49.329 27.192 47.308 27.192C46.162 27.192 45.252 26.679 44.778 25.784H44.738V29.77H43.086V19.06H44.686V20.398H44.716C45.176 19.535 46.155 18.976 47.278 18.976C49.321 18.976 50.668 20.59 50.668 23.084ZM57.827 23.084C57.827 21.455 56.985 20.384 55.701 20.384C54.438 20.384 53.59 21.477 53.59 23.084C53.59 24.706 54.438 25.792 55.7 25.792C56.985 25.792 57.827 24.728 57.827 23.084ZM59.525 23.084C59.525 25.584 58.187 27.192 56.166 27.192C55.02 27.192 54.11 26.679 53.635 25.784H53.597V29.77H51.944V19.06H53.544V20.398H53.574C54.034 19.535 55.012 18.976 56.136 18.976C58.179 18.976 59.525 20.59 59.525 23.084ZM65.38 24.032C65.502 25.127 66.566 25.845 68.018 25.845C69.411 25.845 70.413 25.127 70.413 24.14C70.413 23.283 69.808 22.77 68.378 22.419L66.947 22.074C64.92 21.584 63.979 20.636 63.979 19.098C63.979 17.194 65.639 15.885 67.996 15.885C70.328 15.885 71.927 17.194 71.981 19.098H70.313C70.213 17.996 69.303 17.331 67.973 17.331C66.641 17.331 65.731 18.004 65.731 18.983C65.731 19.763 66.312 20.223 67.735 20.575L68.951 20.873C71.216 21.409 72.158 22.318 72.158 23.933C72.158 25.998 70.512 27.291 67.896 27.291C65.448 27.291 63.795 26.028 63.688 24.032H65.38ZM75.722 17.155V19.059H77.252V20.368H75.722V24.804C75.722 25.494 76.029 25.815 76.702 25.815C76.883 25.812 77.064 25.799 77.245 25.777V27.077C77.062 27.123 76.695 27.154 76.327 27.154C74.698 27.154 74.062 26.541 74.062 24.981V20.368H72.892V19.06H74.062V17.156L75.722 17.155ZM84.09 23.085C84.09 21.347 83.294 20.322 81.956 20.322C80.617 20.322 79.822 21.355 79.822 23.084C79.822 24.828 80.617 25.845 81.956 25.845C83.294 25.845 84.09 24.828 84.09 23.085ZM78.139 23.085C78.139 20.552 79.63 18.961 81.956 18.961C84.289 18.961 85.774 20.552 85.774 23.084C85.774 25.624 84.297 27.207 81.956 27.207C79.616 27.207 78.139 25.624 78.139 23.085ZM87.135 19.059H88.711V20.429H88.75C89.002 19.519 89.736 18.976 90.685 18.976C90.922 18.976 91.12 19.007 91.251 19.037V20.582C91.121 20.529 90.83 20.482 90.509 20.482C89.446 20.482 88.788 21.202 88.788 22.334V27.108H87.135V19.059ZM93.283 22.342H97.306C97.268 21.11 96.48 20.299 95.333 20.299C94.193 20.299 93.367 21.126 93.283 22.342ZM98.867 24.744C98.645 26.205 97.222 27.207 95.402 27.207C93.061 27.207 91.607 25.639 91.607 23.123C91.607 20.598 93.069 18.961 95.333 18.961C97.559 18.961 98.959 20.491 98.959 22.931V23.497H93.275V23.597C93.275 24.973 94.14 25.875 95.44 25.875C96.358 25.875 97.078 25.44 97.299 24.744H98.867ZM34.168 12.314H35.168C36.278 12.314 36.917 11.624 36.917 10.407C36.917 9.209 36.267 8.51 35.168 8.51H34.168V12.314ZM35.26 7.761C36.833 7.761 37.756 8.727 37.756 10.396C37.756 12.091 36.84 13.065 35.26 13.065H33.344V7.76L35.26 7.761ZM41.65 11.061C41.65 10.194 41.259 9.687 40.575 9.687C39.888 9.687 39.502 10.194 39.502 11.061C39.502 11.936 39.888 12.44 40.575 12.44C41.259 12.44 41.65 11.932 41.65 11.061ZM38.686 11.061C38.686 9.771 39.406 8.985 40.576 8.985C41.741 8.985 42.462 9.772 42.462 11.061C42.462 12.359 41.744 13.142 40.575 13.142C39.403 13.142 38.686 12.359 38.686 11.062V11.061ZM47.479 13.065H46.659L45.833 10.116H45.77L44.947 13.065H44.135L43.031 9.062H43.833L44.55 12.116H44.61L45.432 9.062H46.19L47.013 12.116H47.075L47.789 9.062H48.579L47.479 13.065ZM49.507 9.062H50.267V9.698H50.326C50.52 9.253 50.918 8.985 51.52 8.985C52.414 8.985 52.906 9.521 52.906 10.474V13.064H52.116V10.672C52.116 10.028 51.836 9.708 51.252 9.708C50.668 9.708 50.296 10.098 50.296 10.723V13.065H49.506L49.507 9.062ZM54.165 13.065H54.955V7.5H54.165V13.065ZM59.015 11.061C59.015 10.194 58.625 9.687 57.942 9.687C57.254 9.687 56.869 10.194 56.869 11.061C56.869 11.936 57.254 12.44 57.942 12.44C58.625 12.44 59.015 11.932 59.015 11.061ZM56.053 11.061C56.053 9.771 56.773 8.985 57.942 8.985C59.107 8.985 59.828 9.772 59.828 11.061C59.828 12.359 59.11 13.142 57.942 13.142C56.769 13.142 56.052 12.359 56.052 11.062L56.053 11.061ZM63.233 11.591V11.256L62.255 11.318C61.705 11.355 61.455 11.543 61.455 11.896C61.455 12.256 61.766 12.466 62.195 12.466C62.791 12.466 63.233 12.087 63.233 11.591ZM60.66 11.932C60.66 11.212 61.196 10.796 62.149 10.738L63.232 10.675V10.33C63.232 9.908 62.953 9.668 62.414 9.668C61.973 9.668 61.667 9.83 61.579 10.113H60.814C60.895 9.426 61.542 8.985 62.45 8.985C63.454 8.985 64.019 9.485 64.019 10.33V13.065H63.259V12.502H63.196C62.958 12.903 62.52 13.131 61.994 13.131C61.222 13.131 60.66 12.664 60.66 11.932ZM65.873 11.062C65.873 11.91 66.273 12.422 66.943 12.422C67.608 12.422 68.02 11.903 68.02 11.065C68.02 10.231 67.604 9.705 66.942 9.705C66.278 9.705 65.873 10.219 65.873 11.061V11.062ZM65.057 11.062C65.057 9.796 65.707 8.996 66.719 8.996C67.267 8.996 67.729 9.256 67.946 9.698H68.006V7.5H68.795V13.065H68.038V12.432H67.975C67.737 12.87 67.27 13.131 66.719 13.131C65.701 13.131 65.057 12.33 65.057 11.061V11.062ZM75.026 11.062C75.026 10.194 74.636 9.687 73.952 9.687C73.265 9.687 72.879 10.194 72.879 11.061C72.879 11.936 73.265 12.44 73.952 12.44C74.636 12.44 75.026 11.932 75.026 11.061V11.062ZM72.063 11.062C72.063 9.772 72.784 8.985 73.953 8.985C75.118 8.985 75.838 9.772 75.838 11.061C75.838 12.359 75.121 13.142 73.952 13.142C72.781 13.142 72.063 12.359 72.063 11.062ZM76.899 9.062H77.659V9.698H77.718C77.912 9.253 78.31 8.985 78.912 8.985C79.806 8.985 80.298 9.521 80.298 10.474V13.064H79.508V10.672C79.508 10.028 79.228 9.708 78.644 9.708C78.06 9.708 77.688 10.098 77.688 10.723V13.065H76.898L76.899 9.062ZM84.761 8.066V9.08H85.629V9.746H84.761V11.803C84.761 12.223 84.934 12.407 85.327 12.407C85.449 12.407 85.518 12.399 85.629 12.388V13.046C85.487 13.072 85.343 13.086 85.199 13.087C84.32 13.087 83.971 12.777 83.971 12.007V9.745H83.335V9.08H83.971V8.066H84.761ZM86.708 7.5H87.491V9.705H87.553C87.747 9.257 88.17 8.988 88.773 8.988C89.626 8.988 90.153 9.528 90.153 10.481V13.065H89.361V10.675C89.361 10.036 89.063 9.712 88.505 9.712C87.858 9.712 87.497 10.121 87.497 10.727V13.065H86.707L86.708 7.5ZM91.978 10.694H94.001C93.982 10.066 93.601 9.657 93.015 9.657C92.431 9.657 92.022 10.069 91.978 10.694ZM94.758 11.984C94.578 12.701 93.938 13.142 93.023 13.142C91.877 13.142 91.174 12.355 91.174 11.076C91.174 9.796 91.892 8.985 93.02 8.985C94.134 8.985 94.806 9.745 94.806 11.003V11.278H91.979V11.323C92.006 12.024 92.414 12.469 93.045 12.469C93.524 12.469 93.851 12.296 93.998 11.984H94.758Z" fill="#FFFFFE"/>
</g>
</svg>
