<svg width="25" height="25" viewBox="0 0 25 25" fill="none" xmlns="http://www.w3.org/2000/svg">
<mask id="mask0_4_1421" style="mask-type:luminance" maskUnits="userSpaceOnUse" x="0" y="0" width="25" height="25">
<path d="M0.950012 0.25H24.95V24.25H0.950012V0.25Z" fill="white"/>
</mask>
<g mask="url(#mask0_4_1421)">
<mask id="mask1_4_1421" style="mask-type:luminance" maskUnits="userSpaceOnUse" x="1" y="0" width="24" height="24">
<path d="M24.2 12.242C24.2 15.225 23.015 18.085 20.904 20.194C18.793 22.3034 15.9308 23.4883 12.9465 23.4883C9.96223 23.4883 7.10005 22.3034 4.98902 20.194C3.94429 19.15 3.11552 17.9103 2.55008 16.5459C1.98464 15.1815 1.6936 13.719 1.6936 12.242C1.6936 10.765 1.98464 9.30256 2.55008 7.93812C3.11552 6.57368 3.94429 5.33403 4.98902 4.29001C7.10005 2.18063 9.96223 0.995728 12.9465 0.995728C15.9308 0.995728 18.793 2.18063 20.904 4.29001C21.9489 5.33398 22.7777 6.57361 23.3433 7.93805C23.9088 9.30249 24.1999 10.765 24.2 12.242Z" fill="white"/>
</mask>
<g mask="url(#mask1_4_1421)">
<path d="M-1.83099 23.894H33.327V0.453979H-1.83099V23.894Z" fill="#1A856C"/>
</g>
<mask id="mask2_4_1421" style="mask-type:luminance" maskUnits="userSpaceOnUse" x="8" y="7" width="10" height="10">
<path d="M17.65 12.252C17.6503 12.8682 17.5291 13.4784 17.2933 14.0478C17.0575 14.6171 16.7118 15.1344 16.2759 15.57C15.84 16.0056 15.3225 16.351 14.7531 16.5864C14.1836 16.8218 13.5733 16.9426 12.957 16.942C11.7131 16.9415 10.5201 16.4473 9.64023 15.5679C8.76032 14.6886 8.26536 13.496 8.26404 12.252C8.26391 11.6358 8.38523 11.0257 8.62108 10.4565C8.85693 9.88729 9.20267 9.37015 9.63853 8.93466C10.0744 8.49917 10.5918 8.15387 11.1613 7.9185C11.7307 7.68314 12.3409 7.56233 12.957 7.56299C14.2009 7.56352 15.3937 8.05775 16.2735 8.93712C17.1532 9.8165 17.648 11.0091 17.649 12.253L17.65 12.252Z" fill="white"/>
</mask>
<g mask="url(#mask2_4_1421)">
<path d="M6.79407 17.111H21.4541V7.33704H6.79507L6.79407 17.111Z" fill="#C0392B"/>
</g>
</g>
</svg>
