<svg width="140" height="21" viewBox="0 0 140 21" fill="none" xmlns="http://www.w3.org/2000/svg">
<path d="M26.8674 5.14156V19.735H30.1093L30.1222 5.14156C29.6202 5.41924 29.0569 5.56739 28.4832 5.5726C27.9176 5.56189 27.3632 5.41397 26.8674 5.14156ZM28.4651 3.51289C28.7874 3.51289 29.1023 3.4173 29.3702 3.23823C29.6381 3.05915 29.8469 2.80464 29.9701 2.50689C30.0933 2.20914 30.1254 1.88153 30.0623 1.56553C29.9993 1.24953 29.8439 0.959338 29.6158 0.731668C29.3878 0.503997 29.0974 0.349086 28.7813 0.286535C28.4652 0.223985 28.1376 0.256606 27.8401 0.380272C27.5425 0.503938 27.2883 0.71309 27.1097 0.981262C26.931 1.24943 26.8359 1.56457 26.8365 1.8868C26.8371 2.3183 27.009 2.7319 27.3144 3.03678C27.6198 3.34165 28.0336 3.51289 28.4651 3.51289ZM40.1575 11.7285L40.6969 11.1374L41.7293 10.0224L44.184 7.39743L45.0383 6.46565L45.4977 5.94944H43.278C42.422 5.95169 41.6013 6.29108 40.9937 6.89411L40.7589 7.15222L36.3916 12.0176H36.3116V0.271041H34.9333C34.5041 0.275123 34.0938 0.448515 33.7917 0.753508C33.4896 1.0585 33.3201 1.47043 33.3202 1.89971V19.735H36.3245V15.8634C36.6265 15.5098 36.9414 15.1665 37.2563 14.831C37.5712 14.4954 37.8861 14.1754 38.1881 13.8347C38.8471 14.831 39.4907 15.8152 40.1187 16.7874C40.7468 17.7596 41.3895 18.7439 42.0468 19.7402H45.5519C44.646 18.4135 43.7452 17.0765 42.847 15.7369C41.9694 14.4051 41.0634 13.0681 40.1575 11.7285ZM78.8996 6.89928C78.3534 6.53417 77.7387 6.2839 77.0928 6.16367C76.3665 6.01762 75.6269 5.94756 74.886 5.9546C73.9392 5.94941 72.997 6.086 72.0907 6.35983C71.865 6.42658 71.6457 6.51295 71.4351 6.61794C71.4222 6.63084 71.4093 6.63084 71.3835 6.64375C71.1758 6.74047 70.991 6.88004 70.8411 7.05328C70.6913 7.22652 70.5798 7.42951 70.5139 7.64892C70.4481 7.86832 70.4295 8.09917 70.4592 8.3263C70.489 8.55342 70.5665 8.77168 70.6866 8.96673L70.9111 9.25581L71.4093 9.8985C71.4867 9.82107 71.5796 9.75396 71.6674 9.67653C72.0027 9.40794 72.3793 9.19527 72.7824 9.04674C73.0069 8.96173 73.2396 8.90031 73.4767 8.86349C73.8839 8.79104 74.2969 8.75562 74.7105 8.75766C75.1632 8.74341 75.6153 8.80091 76.0501 8.92801C76.3576 9.01049 76.6438 9.1584 76.8889 9.36164C77.0938 9.52294 77.2449 9.74251 77.3225 9.99142C77.4063 10.2323 77.4507 10.485 77.4542 10.7399V11.7491H73.7039C73.0158 11.7343 72.3309 11.8454 71.6829 12.0769C71.1359 12.2757 70.6353 12.584 70.2116 12.9829C69.8279 13.3607 69.5242 13.8119 69.3186 14.3096C69.1142 14.8135 69.0124 15.3532 69.0192 15.897C69.0192 17.2365 69.4502 18.2586 70.3097 18.9943C71.1692 19.7299 72.3307 20.0706 73.7994 20.0706C74.4965 20.07 75.1889 19.9549 75.8487 19.7299C76.4601 19.539 76.9997 19.1684 77.3974 18.6665L77.449 18.6923V19.7557H80.598V10.5335C80.6225 9.76845 80.465 9.00856 80.1385 8.31629C79.8549 7.74482 79.4281 7.25661 78.8996 6.89928ZM77.4568 15.0091C77.4562 15.1497 77.4476 15.2901 77.431 15.4298C77.408 15.7603 77.2946 16.0782 77.1032 16.3486C76.9135 16.5861 76.6816 16.7864 76.4192 16.9397C76.1359 17.0923 75.83 17.1986 75.5132 17.2546C75.1727 17.3176 74.827 17.3479 74.4808 17.3449C74.0893 17.3558 73.6987 17.3026 73.3244 17.1875C73.0532 17.1032 72.7996 16.9702 72.5759 16.7952C72.3868 16.6584 72.2372 16.4741 72.1423 16.2609C72.0603 16.0653 72.0156 15.856 72.0107 15.644C72.0099 15.4354 72.0559 15.2293 72.1452 15.0408C72.2345 14.8523 72.365 14.6863 72.5269 14.5548C72.8676 14.2528 73.4458 14.1083 74.2459 14.1083H77.4568V15.0091ZM62.391 5.75844C61.7219 5.75593 61.0597 5.89398 60.4474 6.16367C59.6012 6.55761 58.8327 7.10053 58.1786 7.76652C58.0214 7.488 57.822 7.2355 57.5875 7.01801C56.7332 6.20238 55.6827 5.77134 54.2657 5.77134C53.5954 5.74679 52.9292 5.88587 52.3247 6.17657C51.602 6.55857 51.1942 7.09544 50.7502 7.59359V5.9546H49.1216C48.908 5.9546 48.6966 5.99666 48.4993 6.07838C48.302 6.1601 48.1228 6.27987 47.9718 6.43087C47.8208 6.58186 47.701 6.76112 47.6193 6.95841C47.5375 7.15569 47.4955 7.36714 47.4955 7.58068V19.7479H50.7348V11.5969C50.7219 10.4947 50.8406 9.91657 51.3387 9.43132C51.5918 9.18986 51.8909 9.00169 52.2181 8.87799C52.5453 8.75428 52.894 8.69757 53.2436 8.7112C54.134 8.7112 54.6864 8.9848 55.0942 9.48553C55.502 9.98626 55.6104 10.758 55.6104 11.6511V19.7479H58.8471V11.5969C58.8342 10.4947 58.9529 9.91657 59.4511 9.43132C59.7036 9.18969 60.0021 9.00139 60.3289 8.87767C60.6558 8.75394 61.0042 8.69733 61.3534 8.7112C62.2464 8.7112 62.7962 8.9848 63.204 9.48553C63.6118 9.98626 63.7202 10.758 63.7202 11.6511V19.7479H66.9621V10.8225C66.9621 9.18354 66.5284 7.81814 65.6715 7.0051C64.8146 6.19206 63.808 5.75844 62.391 5.75844ZM90.3622 5.74553C89.6919 5.72098 89.0257 5.86006 88.4212 6.15076C87.6985 6.53276 87.2933 7.06963 86.8468 7.56778V5.93653H85.2258C85.0122 5.93619 84.8006 5.97802 84.6032 6.05962C84.4057 6.14121 84.2263 6.26098 84.0753 6.41204C83.9242 6.56311 83.8044 6.7425 83.7228 6.93994C83.6412 7.13738 83.5994 7.34898 83.5998 7.56262V19.735H86.8416V11.584C86.8261 10.4818 86.9448 9.90366 87.443 9.41842C87.6961 9.17695 87.9951 8.98878 88.3224 8.86508C88.6496 8.74138 88.9983 8.68466 89.3478 8.6983C90.2409 8.6983 90.7907 8.97189 91.1985 9.45714C91.6063 9.94238 91.7147 10.7322 91.7147 11.6227V19.735H94.9565V10.8096C94.9565 9.17064 94.5229 7.80524 93.666 6.9922C92.8091 6.17915 91.7896 5.74553 90.3622 5.74553ZM111.907 5.93653C112.594 5.92977 113.277 6.05871 113.915 6.31595C114.487 6.5539 115.005 6.90508 115.437 7.34839C115.868 7.80169 116.195 8.34337 116.395 8.93575C116.621 9.57635 116.733 10.2517 116.725 10.9309V14.6684C116.732 15.3714 116.616 16.0701 116.382 16.7332C116.176 17.327 115.845 17.87 115.412 18.3258C114.981 18.7627 114.462 19.1024 113.889 19.3221C113.253 19.5674 112.575 19.6883 111.894 19.6782C111.169 19.6957 110.449 19.5566 109.782 19.2704C109.212 19.0253 108.701 18.6589 108.286 18.1967C107.871 17.7345 107.562 17.1876 107.379 16.5938C107.182 15.9696 107.084 15.318 107.09 14.6632V10.9413C107.086 10.3002 107.184 9.66248 107.379 9.0519C107.568 8.46829 107.871 7.92848 108.272 7.46454C108.692 6.99398 109.207 6.61751 109.782 6.35983C110.45 6.06358 111.176 5.91901 111.907 5.93653ZM111.935 7.54971C111.459 7.53707 110.987 7.63608 110.557 7.83879C110.179 8.02131 109.846 8.28584 109.584 8.61312C109.321 8.93908 109.126 9.3136 109.008 9.71524C108.878 10.1226 108.811 10.5473 108.809 10.9748V14.578C108.808 15.0227 108.875 15.4649 109.008 15.8892C109.131 16.2927 109.326 16.6705 109.584 17.0042C109.846 17.3354 110.178 17.6043 110.557 17.7915C110.985 18.0012 111.458 18.1047 111.935 18.0935C112.381 18.1016 112.822 18.0071 113.225 17.8173C113.595 17.6412 113.925 17.3918 114.196 17.0843C114.47 16.7547 114.679 16.3764 114.813 15.9692C114.959 15.515 115.031 15.0398 115.025 14.5625V10.9671C115.029 10.5169 114.958 10.0692 114.813 9.64297C114.682 9.24245 114.472 8.87213 114.196 8.55375C113.933 8.23791 113.601 7.98632 113.225 7.81814C112.819 7.63995 112.379 7.55021 111.935 7.55487V7.54971ZM128.575 15.8118C128.58 16.3431 128.478 16.87 128.273 17.3604C128.088 17.8003 127.816 18.1981 127.473 18.5299C127.13 18.8617 126.724 19.1207 126.278 19.2911C125.821 19.4645 125.337 19.552 124.848 19.5492H119.17V7.37162C119.169 7.19391 119.204 7.01788 119.272 6.85364C119.34 6.68939 119.439 6.54016 119.565 6.4145C119.691 6.28884 119.84 6.18923 120.004 6.12138C120.168 6.05354 120.345 6.01879 120.522 6.01913H124.275C124.864 6.00938 125.45 6.09658 126.01 6.27723C126.478 6.43167 126.908 6.6842 127.272 7.01801C127.607 7.32635 127.867 7.70792 128.031 8.13304C128.208 8.58871 128.295 9.07417 128.289 9.56296C128.285 9.85077 128.25 10.1373 128.183 10.4173C128.11 10.7138 127.99 10.9968 127.829 11.2562C127.652 11.5314 127.436 11.7792 127.187 11.9918C126.906 12.2272 126.585 12.4091 126.239 12.5286V12.5828C126.612 12.663 126.963 12.8195 127.272 13.0423C127.562 13.2528 127.81 13.5154 128.005 13.8166C128.201 14.11 128.347 14.4335 128.438 14.7742C128.527 15.113 128.573 15.4616 128.575 15.8118ZM120.884 7.52906V11.9169H124.074C124.9 11.9169 125.53 11.7078 125.937 11.2871C126.143 11.0811 126.304 10.835 126.41 10.5641C126.516 10.2932 126.565 10.0034 126.554 9.71266C126.56 9.42637 126.509 9.14175 126.403 8.87571C126.297 8.60967 126.139 8.36765 125.937 8.16401C125.517 7.74329 124.905 7.53422 124.074 7.53422H120.884V7.52906ZM120.884 13.383V17.9902H124.363C124.744 17.999 125.123 17.9314 125.478 17.7915C125.769 17.6758 126.033 17.4999 126.252 17.2753C126.452 17.0621 126.608 16.8123 126.712 16.5396C126.922 15.9814 126.922 15.3659 126.712 14.8077C126.612 14.533 126.455 14.2824 126.252 14.0721C126.033 13.8474 125.769 13.6715 125.478 13.5559C125.12 13.4288 124.743 13.3668 124.363 13.3726L120.884 13.383ZM130.137 16.7771L130.847 17.0791C131.812 17.4975 132.826 17.7966 133.864 17.9696C134.119 18.0191 134.378 18.0459 134.638 18.0496C135.04 18.0553 135.442 18.0111 135.833 17.9179C136.174 17.8344 136.499 17.692 136.791 17.4972C137.057 17.308 137.274 17.0563 137.421 16.7642C137.585 16.4342 137.666 16.0693 137.658 15.7008C137.672 15.3627 137.582 15.0283 137.4 14.7432C137.222 14.489 136.989 14.2781 136.719 14.1263C136.402 13.9568 136.067 13.8243 135.72 13.7314C135.34 13.6256 134.945 13.5353 134.512 13.4552C133.996 13.352 133.464 13.2333 132.937 13.1145C132.44 13.0032 131.965 12.8077 131.533 12.5364C131.113 12.2714 130.767 11.9059 130.524 11.473C130.236 10.9243 130.099 10.3085 130.129 9.68943C130.113 9.14142 130.228 8.59748 130.466 8.10339C130.703 7.6093 131.056 7.17952 131.494 6.85024C131.922 6.52018 132.407 6.2709 132.924 6.11463C133.482 5.94727 134.061 5.86036 134.643 5.85652C136.171 5.9255 137.658 6.36867 138.974 7.14706V8.79896C138.974 8.79896 136.561 7.50841 134.643 7.50841C134.643 7.50841 133.384 7.50841 132.578 8.07367C132.337 8.25536 132.144 8.49448 132.018 8.76938C131.892 9.04428 131.836 9.34631 131.856 9.64814C131.845 9.9587 131.928 10.2654 132.093 10.5283C132.281 10.7879 132.528 10.9985 132.813 11.1426C133.193 11.3351 133.594 11.4807 134.008 11.5762C134.481 11.6949 135.02 11.8343 135.624 11.9324C136.042 12.0227 136.489 12.1286 136.935 12.2602C137.373 12.3873 137.785 12.5871 138.156 12.8513C138.536 13.1376 138.842 13.5101 139.049 13.9379C139.304 14.4776 139.425 15.0708 139.403 15.6672C139.412 16.2418 139.292 16.811 139.049 17.332C138.812 17.8174 138.471 18.2448 138.05 18.5839C137.587 18.9363 137.062 19.1989 136.502 19.3582C135.864 19.5501 135.201 19.6432 134.535 19.6344C134.09 19.6334 133.646 19.5937 133.208 19.5156C132.74 19.4355 132.279 19.3172 131.83 19.162C131.376 19.0102 130.937 18.8166 130.519 18.5839L130.137 18.3619V16.7771ZM104.452 6.06042C104.275 6.06008 104.099 6.09477 103.935 6.16249C103.771 6.2302 103.622 6.32963 103.497 6.45504C103.372 6.58046 103.272 6.72941 103.205 6.89334C103.137 7.05727 103.102 7.23296 103.102 7.41033V15.2465C103.119 15.7321 103.048 16.2166 102.891 16.6764C102.784 17.0095 102.595 17.3104 102.341 17.5514C102.106 17.759 101.827 17.9115 101.525 17.998C101.247 18.0676 100.96 18.098 100.674 18.0883C100.423 18.0788 100.173 18.0529 99.9251 18.0109C99.854 17.9989 99.7841 17.9807 99.7161 17.9567C99.5044 17.8921 98.9805 17.7476 98.4565 17.5385V19.1517L98.7714 19.3092C99.3742 19.5754 100.028 19.7075 100.687 19.6963C101.232 19.6964 101.775 19.6209 102.3 19.4718C102.795 19.3315 103.25 19.0749 103.626 18.7232C104.023 18.3439 104.325 17.876 104.507 17.3578C104.731 16.6862 104.836 15.9803 104.816 15.2723V6.06042H104.452ZM20.8664 8.51762H1.11333C0.844607 8.51709 0.585082 8.61544 0.384211 8.79394C0.183339 8.97244 0.0551635 9.21861 0.0241089 9.48553C0.0370143 9.63007 0.0370143 9.75912 0.0499198 9.90366C0.251825 12.664 1.49043 15.2458 3.51708 17.1308C5.54373 19.0157 8.2084 20.0642 10.9761 20.0659C13.7439 20.0675 16.4098 19.0221 18.4386 17.1396C20.4675 15.257 21.7092 12.6767 21.9143 9.91657C21.9143 9.77461 21.9427 9.63007 21.9427 9.49843C21.9165 9.23073 21.792 8.98225 21.5931 8.80107C21.3943 8.61989 21.1354 8.5189 20.8664 8.51762ZM5.20693 4.66922C5.64096 4.66973 6.06539 4.54149 6.42652 4.30073C6.78765 4.05997 7.06925 3.7175 7.2357 3.31666C7.40215 2.91582 7.44596 2.47461 7.3616 2.04886C7.27724 1.62311 7.06849 1.23195 6.76177 0.924866C6.45505 0.617782 6.06413 0.408575 5.63848 0.323712C5.21283 0.23885 4.77157 0.282146 4.37053 0.448123C3.9695 0.6141 3.6267 0.895299 3.38551 1.25614C3.14433 1.61699 3.01559 2.04126 3.01559 2.47529C3.01695 3.05629 3.24818 3.61314 3.65877 4.02422C4.06936 4.43529 4.62594 4.66717 5.20693 4.66922ZM16.7315 4.66922C17.1655 4.66973 17.5899 4.54149 17.9511 4.30073C18.3122 4.05997 18.5938 3.7175 18.7603 3.31666C18.9267 2.91582 18.9705 2.47461 18.8862 2.04886C18.8018 1.62311 18.5931 1.23195 18.2863 0.924866C17.9796 0.617782 17.5887 0.408575 17.163 0.323712C16.7374 0.23885 16.2961 0.282146 15.8951 0.448123C15.4941 0.6141 15.1513 0.895299 14.9101 1.25614C14.6689 1.61699 14.5402 2.04126 14.5402 2.47529C14.5408 3.0565 14.7718 3.61375 15.1826 4.02497C15.5933 4.43619 16.1503 4.66785 16.7315 4.66922Z" fill="#0074BA"/>
</svg>
