<svg width="118" height="125" viewBox="0 0 118 125" fill="none" xmlns="http://www.w3.org/2000/svg">
<path d="M58.409 124.94C90.6666 124.94 116.817 98.5951 116.817 66.0971C116.817 33.5991 90.6666 7.25433 58.409 7.25433C26.1514 7.25433 0.00149918 33.5991 0.00149918 66.0971C0.00149918 98.5951 26.1514 124.94 58.409 124.94Z" fill="#F3F6F5"/>
<path d="M87.3371 46.4509C86.417 41.1994 83.7476 36.2355 79.4046 32.5468C75.0575 28.8551 69.7714 27.0534 64.5141 27.0534H40.3069C35.0516 27.0534 29.7645 28.8551 25.4145 32.5468C21.0694 36.2355 18.4001 41.2004 17.4819 46.4509L9.42639 92.3762C8.83117 95.7964 7.48837 99.0431 5.49381 101.885L1.74964 107.225C1.45289 107.649 1.2768 108.146 1.24012 108.663C1.20345 109.179 1.30758 109.696 1.54141 110.157C1.77258 110.615 2.12574 110.999 2.56183 111.268C2.99792 111.538 3.49995 111.681 4.01241 111.682H100.806C101.318 111.681 101.82 111.537 102.255 111.268C102.691 110.999 103.044 110.615 103.275 110.157C103.509 109.696 103.613 109.179 103.577 108.663C103.541 108.147 103.366 107.65 103.07 107.225L99.3203 101.885C97.3301 99.0406 95.9887 95.7944 95.3907 92.3752L87.3371 46.4509ZM71.7427 5.3218C71.7427 6.08532 71.5692 6.81711 71.2648 7.45867C71.2648 7.4666 70.6877 8.37589 70.6877 8.37589C70.6762 8.40199 70.6593 8.42532 70.6381 8.4443L66.7243 14.8034C65.8973 16.1565 64.7364 17.2744 63.353 18.0498C61.9798 18.8231 60.4302 19.2289 58.8542 19.2278H45.9598C44.4328 19.2278 42.887 18.851 41.4631 18.0498C40.0815 17.2726 38.9206 16.1564 38.0897 14.8063L34.1314 8.37489L33.5573 7.45767C33.2379 6.79099 33.0725 6.06103 33.0734 5.3218C33.0734 2.61179 35.236 0.422363 37.9053 0.422363C40.5756 0.422363 42.7362 2.61179 42.7362 5.3208C42.7362 2.61179 44.9048 0.422363 47.5751 0.422363C50.2494 0.422363 52.4061 2.61179 52.4061 5.3208C52.4061 2.61179 54.5677 0.422363 57.238 0.422363C59.9103 0.422363 62.0788 2.61179 62.0788 5.3208C62.0788 2.61179 64.2385 0.422363 66.9098 0.422363C69.585 0.422363 71.7427 2.61278 71.7427 5.3218Z" fill="#D95E46"/>
<path d="M40.8126 17.6532H63.9955V27.0533H40.8126V17.6532Z" fill="#34495E"/>
<path fill-rule="evenodd" clip-rule="evenodd" d="M82.8017 111.238C82.8017 111.238 79.8081 109.525 76.5647 88.0648C73.3223 66.6069 75.6524 61.5537 74.2176 54.4401C72.7838 47.3264 72.0858 46.6432 67.4839 39.1419C62.88 31.6405 56.5231 26.8482 56.5231 26.8482L56.2057 17.2695L62.5459 4.5811C62.5459 4.5811 61.4214 2.93209 64.4517 1.14228C67.4829 -0.64754 69.3213 1.14228 69.3213 1.14228C69.3213 1.14228 71.232 1.78582 71.7328 3.05901C72.2345 4.33221 71.7328 7.26632 71.7328 7.26632L64.4536 17.7712L64.0659 26.8055C64.0659 26.8055 69.0793 26.8452 72.7462 28.2176C76.414 29.5899 77.6366 30.876 79.943 32.7471C82.2494 34.6183 82.6817 34.9029 84.3247 37.8221C85.9668 40.7403 85.475 39.2172 87.0119 45.3086C88.5488 51.3979 86.4645 41.4453 89.4888 58.2934C92.5141 75.1415 95.0069 89.8556 95.4135 92.1065C95.82 94.3574 95.9093 94.766 96.3842 96.4497C96.8592 98.1334 94.9415 95.4283 97.5146 99.5543C100.088 103.679 102.411 106.097 102.97 107.008C103.529 107.92 103.721 109.672 103.721 109.672L102.46 111.322L82.8017 111.238Z" fill="#C94C3A"/>
<path fill-rule="evenodd" clip-rule="evenodd" d="M55.1725 17.7394H64.3882V27.0771H55.1735L55.1725 17.7394Z" fill="#34495E"/>
<path fill-rule="evenodd" clip-rule="evenodd" d="M53.1725 26.7917L54.2999 111.194L84.8076 111.917L80.2186 59.8988L72.0758 35.6545L60.8175 27.1665L53.1725 26.7917Z" fill="#C94C3A"/>
<path d="M52.408 51.033C42.4239 51.033 34.3277 59.2432 34.3277 69.3731C34.3277 79.4971 42.4239 87.7073 52.408 87.7073C62.3932 87.7073 70.4923 79.4971 70.4923 69.3731C70.4923 59.2442 62.3942 51.033 52.408 51.033ZM52.408 51.033C42.4239 51.033 34.3277 59.2432 34.3277 69.3731C34.3277 79.4971 42.4239 87.7073 52.408 87.7073C62.3932 87.7073 70.4923 79.4971 70.4923 69.3731C70.4923 59.2442 62.3942 51.033 52.408 51.033Z" fill="#F8FAF9"/>
<path fill-rule="evenodd" clip-rule="evenodd" d="M53.8954 79.5606V81.4743C53.8954 81.8789 53.7328 82.2338 53.474 82.5373C53.1998 82.8065 52.8319 82.9589 52.4477 82.9626H52.1205C51.7447 82.9626 51.3728 82.8199 51.0952 82.5373C50.8229 82.2512 50.6728 81.8702 50.6768 81.4753V79.7916C48.4755 79.6944 46.3337 79.0876 45.0952 78.3538L46.0749 74.4748C47.4541 75.2522 49.3907 75.9403 51.5285 75.9403C53.4016 75.9403 54.6698 75.1897 54.6698 73.865C54.6698 72.6037 53.6267 71.7946 51.2013 70.9785C47.6891 69.7728 45.2886 68.103 45.2886 64.8556C45.2886 61.9354 47.3262 59.6349 50.8404 58.9319V57.2522C50.8404 56.8774 50.9742 56.4887 51.2628 56.219C51.5374 55.9156 51.9142 55.7886 52.29 55.7886H52.6004C52.9752 55.7886 53.354 55.9156 53.6455 56.219C53.9212 56.4897 54.0531 56.8774 54.0531 57.2522V58.7158C56.2643 58.805 57.7397 59.279 58.8225 59.8104L57.8607 63.5616C57.0149 63.2175 55.5057 62.4401 53.1398 62.4401C51.004 62.4401 50.3158 63.3712 50.3158 64.3102C50.3158 65.4049 51.471 66.0911 54.2593 67.1709C58.1691 68.565 59.7288 70.3915 59.7288 73.396C59.7248 76.3697 57.6683 78.9041 53.8954 79.5606Z" fill="#D95E46"/>
<path fill-rule="evenodd" clip-rule="evenodd" d="M52.5151 5.24343L52.6867 17.5716L59.1983 17.7699L63.3659 4.6822L62.3446 5.1056L61.3907 2.52156L59.8557 1.22062L57.8052 0.419434L56.3277 0.45513L54.9524 1.10163L53.7724 2.06544L52.9474 3.01735L52.5151 5.24343Z" fill="#C94C3A"/>
<path fill-rule="evenodd" clip-rule="evenodd" d="M52.408 17.7394H64.3882V27.0771H52.408V17.7394Z" fill="#142A3F"/>
<path d="M104.128 75.4439L108.977 99.7275C109.043 100.066 108.973 100.417 108.782 100.704C108.592 100.991 108.296 101.192 107.959 101.263L62.1899 110.766C61.8511 110.833 61.4996 110.765 61.21 110.577C60.9205 110.389 60.7156 110.095 60.6391 109.758L55.7903 85.425C55.7249 85.0868 55.7949 84.7363 55.9854 84.4492C56.1759 84.1621 56.4715 83.9613 56.8086 83.8901L102.577 74.4354C103.304 74.2917 103.983 74.723 104.128 75.4439Z" fill="#2B8272"/>
<path d="M94.9643 101.023L105.874 98.8162C106.213 98.7676 106.456 98.3839 106.407 98.0477L102.286 77.5073C102.236 77.1712 101.85 76.9322 101.51 76.9798L90.6014 79.187C90.2623 79.2346 90.0193 79.6194 90.0679 79.9545C90.1175 80.2916 90.5042 80.5306 90.8443 80.483L101.122 78.4196L105.001 97.664L94.7224 99.7274C94.3832 99.776 94.1403 100.16 94.1889 100.496C94.2861 100.831 94.6252 101.071 94.9653 101.023H94.9643Z" fill="#4B9587"/>
<path d="M111.74 81.6343L114.164 106.303C114.213 107.022 113.728 107.646 113.001 107.742L64.1294 113.645C63.4026 113.694 62.7719 113.214 62.7234 112.494L60.299 87.8246C60.2504 87.1047 60.7353 86.481 61.4631 86.3849L110.334 80.482C111.013 80.4335 111.692 80.962 111.74 81.6333V81.6343Z" fill="#359685"/>
<path d="M111.159 105.103C111.498 105.055 111.788 104.767 111.74 104.383L109.704 83.5539C109.654 83.2188 109.365 82.9302 108.976 82.9788L97.8736 84.0824C97.5345 84.13 97.2439 84.4186 97.2925 84.8023C97.3401 85.1385 97.6316 85.426 98.0193 85.3774L108.444 84.37L110.334 103.903L99.9103 104.91C99.5711 104.959 99.2796 105.248 99.3282 105.63C99.3778 105.967 99.6683 106.255 100.056 106.206L111.159 105.103Z" fill="#53A697"/>
<path d="M117.85 90.129V115.325C117.849 115.502 117.813 115.678 117.745 115.842C117.676 116.005 117.576 116.154 117.45 116.279C117.323 116.404 117.174 116.502 117.009 116.569C116.845 116.636 116.669 116.67 116.491 116.668H65.826C65.6486 116.67 65.4726 116.636 65.3083 116.569C65.144 116.502 64.9945 116.403 64.8684 116.278C64.7423 116.154 64.6421 116.005 64.5734 115.841C64.5048 115.678 64.4692 115.502 64.4685 115.325V90.129C64.4692 89.9515 64.5049 89.7759 64.5735 89.6122C64.6422 89.4485 64.7425 89.3 64.8688 89.1751C64.995 89.0503 65.1446 88.9516 65.309 88.8848C65.4734 88.8179 65.6495 88.7841 65.827 88.7854H116.491C117.268 88.7854 117.85 89.3605 117.85 90.129Z" fill="#3DB39E"/>
<path d="M91.1834 93.105C85.8012 93.105 81.4859 97.4243 81.4859 102.703C81.4859 107.983 85.8498 112.302 91.1834 112.302C96.5161 112.302 100.88 107.983 100.88 102.703C100.88 97.4243 96.5181 93.105 91.1834 93.105ZM91.4254 97.5681V98.288C92.6381 98.4318 93.5592 99.1041 93.9469 99.8239C94.0014 99.9284 94.0345 100.043 94.0441 100.16C94.0441 100.544 93.7526 100.831 93.4135 100.831C93.3069 100.836 93.2011 100.811 93.1072 100.761C93.0134 100.71 92.9349 100.635 92.88 100.544C92.3465 100.016 91.7169 99.584 90.8443 99.584C89.7288 99.584 89.1953 99.9677 89.1953 100.736C89.1953 102.607 93.704 101.744 93.704 104.816C93.704 105.967 93.0258 106.928 91.4254 107.119V107.839C91.4254 108.175 91.1834 108.463 90.8443 108.463C90.5042 108.463 90.2623 108.175 90.2623 107.839V107.119C89.2925 106.975 88.4675 106.591 88.0312 105.967C87.935 105.871 87.8865 105.727 87.8865 105.535C87.8865 105.151 88.177 104.863 88.5647 104.863C88.759 104.863 88.9048 104.959 89.0982 105.151C89.4859 105.535 90.1165 105.823 90.8433 105.823C91.8617 105.823 92.2494 105.343 92.2494 104.816C92.2494 103.136 87.7407 103.903 87.7407 100.736C87.7407 99.344 88.6133 98.4318 90.2623 98.2404V97.5205C90.2623 97.1844 90.5042 96.8958 90.8433 96.8958C91.0054 96.9182 91.1538 96.9987 91.2609 97.1224C91.368 97.2461 91.4264 97.4045 91.4254 97.5681ZM76.6381 113.503C76.6328 113.312 76.5543 113.131 76.419 112.997C76.2836 112.863 76.1018 112.786 75.9113 112.782H68.3951V92.6251H75.9113C76.1017 92.6214 76.2833 92.5446 76.4186 92.4105C76.5539 92.2765 76.6325 92.0956 76.6381 91.9052C76.6325 91.7149 76.5539 91.534 76.4186 91.3999C76.2833 91.2659 76.1017 91.1891 75.9113 91.1854H67.6683C67.4779 91.1891 67.2962 91.2659 67.1609 91.3999C67.0256 91.534 66.9471 91.7149 66.9415 91.9052V113.502C66.9415 113.885 67.2806 114.222 67.6683 114.222H75.9113C76.1017 114.218 76.2833 114.141 76.4186 114.007C76.5539 113.873 76.6325 113.692 76.6381 113.502V113.503ZM115.425 113.503V91.9062C115.42 91.7155 115.341 91.5342 115.206 91.4C115.07 91.2657 114.888 91.1889 114.698 91.1854H106.456C106.265 91.1888 106.083 91.2656 105.948 91.3996C105.812 91.5337 105.733 91.7147 105.728 91.9052C105.728 92.289 106.068 92.6251 106.456 92.6251H113.971V112.782H106.455C106.264 112.786 106.083 112.862 105.947 112.996C105.812 113.13 105.733 113.311 105.728 113.502C105.728 113.885 106.068 114.222 106.456 114.222H114.698C114.888 114.218 115.07 114.141 115.206 114.007C115.341 113.873 115.42 113.692 115.425 113.502V113.503ZM74.6986 101.264C73.8756 101.264 73.2449 101.888 73.2449 102.703C73.2449 103.52 73.8746 104.143 74.6986 104.143C75.5235 104.143 76.1532 103.519 76.1532 102.703C76.1532 101.887 75.475 101.264 74.6986 101.264ZM107.668 104.143C108.491 104.143 109.122 103.519 109.122 102.703C109.122 101.887 108.491 101.264 107.667 101.264C106.843 101.264 106.213 101.888 106.213 102.703C106.213 103.52 106.844 104.143 107.668 104.143Z" fill="#81CEC0"/>
</svg>
