<svg width="121" height="36" viewBox="0 0 121 36" fill="none" xmlns="http://www.w3.org/2000/svg">
<mask id="mask0_4_1389" style="mask-type:luminance" maskUnits="userSpaceOnUse" x="0" y="0" width="121" height="36">
<path d="M0.970032 0H120.97V36H0.970032V0Z" fill="white"/>
</mask>
<g mask="url(#mask0_4_1389)">
<path d="M116.526 0H5.41403C2.96003 0 0.970032 2.015 0.970032 4.5V31.5C0.970032 33.985 2.96003 36 5.41403 36H116.526C118.98 36 120.97 33.985 120.97 31.5V4.5C120.97 2.015 118.98 0 116.526 0Z" fill="black"/>
<path d="M116.526 0.72C117.516 0.72 118.465 1.118 119.165 1.827C119.867 2.53929 120.26 3.49974 120.259 4.5V31.5C120.26 32.5002 119.867 33.4607 119.165 34.173C118.82 34.5231 118.41 34.8013 117.957 34.9913C117.504 35.1814 117.017 35.2795 116.526 35.28H5.41403C4.9226 35.2795 4.43616 35.1814 3.98296 34.9914C3.52976 34.8013 3.11883 34.5232 2.77403 34.173C2.07288 33.4601 1.68058 32.4999 1.68203 31.5V4.5C1.68203 3.497 2.07503 2.536 2.77603 1.827C3.12071 1.47695 3.53148 1.19884 3.9845 1.00881C4.43752 0.818774 4.92377 0.720606 5.41503 0.72H116.526ZM116.526 0H5.41403C4.23603 0 3.10503 0.474 2.27203 1.318C1.43667 2.1663 0.968926 3.30943 0.970034 4.5V31.5C0.970034 32.694 1.43803 33.838 2.27203 34.682C2.6824 35.0988 3.17146 35.4299 3.71083 35.6562C4.2502 35.8824 4.82913 35.9993 5.41403 36H116.526C117.111 35.9993 117.69 35.8825 118.229 35.6562C118.769 35.43 119.258 35.0988 119.668 34.682C120.504 33.8338 120.971 32.6906 120.97 31.5V4.5C120.971 3.30939 120.504 2.16618 119.668 1.318C119.258 0.901176 118.769 0.570022 118.229 0.343766C117.69 0.117509 117.111 0.000659322 116.526 0Z" fill="#A6A6A6"/>
<path d="M61.539 19.5751C60.7915 19.5788 60.0622 19.8063 59.445 20.2281C58.8243 20.6525 58.3428 21.2508 58.061 21.948C57.7777 22.6487 57.7058 23.417 57.854 24.1581C58.001 24.8981 58.363 25.578 58.892 26.111C59.4187 26.643 60.0921 27.0058 60.826 27.153C61.559 27.299 62.317 27.2231 63.006 26.9331C63.696 26.6431 64.285 26.1521 64.699 25.5231C65.114 24.8928 65.3351 24.1547 65.335 23.4C65.3422 22.8944 65.2487 22.3923 65.06 21.923C64.8721 21.4557 64.5927 21.0307 64.238 20.673C63.8847 20.3166 63.4629 20.0353 62.998 19.8461C62.5348 19.6576 62.039 19.5654 61.539 19.5751ZM61.539 25.722C61.0794 25.7546 60.6207 25.6465 60.224 25.4121C59.8255 25.1762 59.5071 24.8261 59.31 24.407C59.1119 23.9863 59.0432 23.5162 59.1127 23.0563C59.1821 22.5964 59.3865 22.1676 59.7 21.824C60.013 21.483 60.42 21.245 60.87 21.142C61.3186 21.0385 61.7881 21.0741 62.216 21.244C62.644 21.414 63.012 21.71 63.272 22.094C63.532 22.479 63.672 22.934 63.672 23.4C63.6861 23.6947 63.6418 23.9892 63.5418 24.2667C63.4418 24.5442 63.2879 24.7992 63.089 25.017C62.8909 25.2322 62.6517 25.4054 62.3854 25.5265C62.1192 25.6476 61.8314 25.7141 61.539 25.722ZM53.263 19.5751C52.5152 19.5773 51.7853 19.8034 51.167 20.2241C50.5451 20.6473 50.0622 21.2451 49.779 21.942C49.4947 22.6424 49.4217 23.4107 49.569 24.1521C49.7146 24.8915 50.0746 25.5717 50.604 26.108C51.1305 26.6407 51.8039 27.0042 52.538 27.1521C53.271 27.2991 54.03 27.222 54.72 26.9331C55.41 26.6431 56 26.153 56.414 25.524C56.8293 24.8935 57.0504 24.155 57.05 23.4C57.0576 22.8944 56.9644 22.3923 56.776 21.923C56.5879 21.4556 56.3081 21.0306 55.953 20.673C55.6014 20.3162 55.1807 20.0347 54.7167 19.846C54.2526 19.6572 53.7549 19.565 53.254 19.5751H53.263ZM53.263 25.722C52.8035 25.756 52.3445 25.6493 51.947 25.416C51.547 25.1815 51.2267 24.832 51.028 24.413C50.8286 23.9926 50.7586 23.5224 50.827 23.0622C50.8953 22.6019 51.099 22.1723 51.412 21.828C51.725 21.486 52.132 21.248 52.582 21.143C53.03 21.039 53.5 21.073 53.928 21.243C54.358 21.413 54.726 21.709 54.986 22.094C55.246 22.479 55.386 22.934 55.388 23.4C55.4021 23.6947 55.3578 23.9892 55.2578 24.2667C55.1578 24.5442 55.0039 24.7992 54.805 25.017C54.6069 25.2322 54.3677 25.4054 54.1014 25.5265C53.8352 25.6476 53.5474 25.7141 53.255 25.722H53.263ZM43.406 20.754V22.3741H47.246C47.1863 23.1354 46.8729 23.8548 46.356 24.417C45.9732 24.8123 45.5115 25.1227 45.001 25.328C44.4919 25.5326 43.9453 25.627 43.397 25.605C42.8362 25.605 42.2811 25.4931 41.764 25.276C41.2455 25.0584 40.7751 24.7403 40.38 24.34C39.983 23.9377 39.6687 23.4614 39.455 22.938C39.1328 22.1487 39.0487 21.2822 39.213 20.4456C39.3774 19.609 39.7831 18.8388 40.38 18.23C40.776 17.83 41.246 17.5111 41.764 17.2941C42.2811 17.077 42.8362 16.9652 43.397 16.965C43.9341 16.9568 44.4675 17.0552 44.9663 17.2545C45.4651 17.4538 45.9195 17.75 46.303 18.126L47.433 16.983C46.9083 16.4448 46.2805 16.018 45.587 15.728C44.8965 15.4393 44.1545 15.2937 43.406 15.3001C42.6153 15.2688 41.8265 15.3995 41.088 15.684C40.3474 15.9698 39.6724 16.4029 39.104 16.9571C38.533 17.5138 38.0797 18.1797 37.771 18.9151C37.461 19.6527 37.3013 20.4449 37.3013 21.2451C37.3013 22.0452 37.461 22.8374 37.771 23.5751C38.0798 24.3101 38.5331 24.9756 39.104 25.532C39.674 26.087 40.349 26.5201 41.088 26.805C41.827 27.09 42.615 27.22 43.406 27.189C44.166 27.224 44.926 27.093 45.633 26.806C46.3411 26.5178 46.9788 26.0805 47.503 25.524C48.4361 24.4833 48.9328 23.1232 48.89 21.726C48.8929 21.385 48.8631 21.0444 48.801 20.709L43.406 20.754ZM83.681 22.014C83.4506 21.3255 83.0173 20.7228 82.438 20.285C81.8622 19.8503 81.167 19.6025 80.446 19.5751C79.959 19.5751 79.478 19.675 79.032 19.869C78.585 20.064 78.182 20.349 77.849 20.708C77.5158 21.0688 77.2589 21.4933 77.0939 21.9559C76.929 22.4186 76.8593 22.9098 76.889 23.4C76.879 23.903 76.969 24.4031 77.153 24.8701C77.337 25.3381 77.613 25.7621 77.963 26.1201C78.313 26.4771 78.731 26.758 79.191 26.948C79.651 27.138 80.144 27.232 80.641 27.225C81.2635 27.2282 81.8769 27.0752 82.425 26.7801C82.9756 26.4836 83.4439 26.0551 83.788 25.5331L82.498 24.633C82.3067 24.9571 82.0345 25.2258 81.708 25.413C81.3831 25.5987 81.0152 25.696 80.641 25.695C80.2555 25.7097 79.8747 25.6068 79.549 25.4C79.2216 25.1919 78.9641 24.8902 78.81 24.534L83.868 22.4191L83.681 22.014ZM78.526 23.292C78.5081 23.0142 78.545 22.7356 78.6348 22.472C78.7245 22.2085 78.8653 21.9652 79.049 21.7561C79.2322 21.5493 79.4548 21.3812 79.7038 21.2617C79.9528 21.1422 80.2232 21.0736 80.499 21.06C80.786 21.04 81.072 21.1081 81.321 21.2521C81.571 21.3951 81.773 21.6111 81.903 21.8701L78.526 23.292ZM74.419 27H76.081V15.75H74.42L74.419 27ZM71.699 20.43H71.637C71.3874 20.1473 71.0807 19.9206 70.737 19.765C70.3943 19.6098 70.0223 19.5297 69.646 19.5301C68.6717 19.5787 67.7544 20.0035 67.087 20.715C66.4148 21.4316 66.041 22.3775 66.042 23.3601C66.0413 24.3422 66.415 25.2878 67.087 26.004C67.7544 26.7156 68.6717 27.1404 69.646 27.189C70.022 27.195 70.396 27.119 70.74 26.963C71.084 26.807 71.39 26.577 71.637 26.289H71.69V26.838C71.69 28.305 70.917 29.088 69.672 29.088C69.2571 29.078 68.8547 28.9435 68.517 28.702C68.1772 28.4588 67.9172 28.1202 67.77 27.729L66.321 28.341C66.5924 29.0108 67.0571 29.5846 67.656 29.989C68.253 30.392 68.955 30.604 69.672 30.6C71.619 30.6 73.228 29.4391 73.228 26.6131V19.8H71.698L71.699 20.43ZM69.797 25.722C69.2219 25.6702 68.6876 25.403 68.301 24.9741C67.9117 24.5423 67.6965 23.9814 67.697 23.4C67.697 22.817 67.912 22.256 68.301 21.826C68.69 21.396 69.223 21.129 69.797 21.078C70.0822 21.0925 70.3614 21.1646 70.6179 21.2901C70.8743 21.4155 71.1027 21.5918 71.289 21.8081C71.4779 22.0252 71.6216 22.2779 71.7117 22.5512C71.8018 22.8246 71.8366 23.1131 71.814 23.4C71.8381 23.6881 71.8043 23.978 71.7147 24.2528C71.6251 24.5276 71.4813 24.7816 71.292 25C71.1032 25.2159 70.8726 25.3912 70.6141 25.5153C70.3555 25.6394 70.0745 25.7097 69.788 25.722H69.797ZM91.467 15.75H87.495V27H89.157V22.734H91.477C91.95 22.768 92.427 22.7041 92.874 22.5441C93.3228 22.3834 93.7335 22.1314 94.08 21.8041C94.428 21.4771 94.705 21.081 94.895 20.64C95.1798 19.9757 95.2544 19.2402 95.1087 18.5322C94.963 17.8243 94.604 17.1779 94.08 16.6801C93.7347 16.3523 93.3247 16.1002 92.8762 15.9401C92.4278 15.7799 91.9509 15.7152 91.476 15.75H91.467ZM91.467 21.15H89.147V17.316H91.503C92.009 17.316 92.494 17.519 92.852 17.882C93.211 18.2457 93.4123 18.7361 93.4123 19.247C93.4123 19.758 93.211 20.2484 92.852 20.612C92.6758 20.7909 92.4658 20.9329 92.2342 21.0299C92.0027 21.1269 91.7541 21.1769 91.503 21.177L91.467 21.15ZM101.717 19.5301C101.111 19.4936 100.508 19.6369 99.983 19.942C99.457 20.247 99.031 20.7021 98.757 21.2491L100.232 21.8701C100.378 21.5991 100.598 21.376 100.866 21.229C101.135 21.082 101.439 21.017 101.743 21.042C101.954 21.0169 102.169 21.0347 102.373 21.0943C102.577 21.154 102.767 21.2542 102.932 21.389C103.266 21.6641 103.478 22.0603 103.521 22.491V22.608C102.988 22.3221 102.393 22.1736 101.788 22.1761C100.197 22.1761 98.588 23.076 98.588 24.705C98.6039 25.0513 98.6882 25.391 98.8359 25.7046C98.9837 26.0182 99.1921 26.2994 99.449 26.532C99.7051 26.7617 100.005 26.9374 100.33 27.0487C100.656 27.16 101 27.2047 101.343 27.18C101.762 27.2105 102.181 27.1262 102.556 26.9361C102.932 26.7461 103.25 26.4571 103.477 26.1H103.53V27H105.13V22.671C105.13 20.7 103.654 19.557 101.761 19.557L101.717 19.5301ZM101.512 25.695C100.97 25.695 100.215 25.416 100.215 24.741C100.215 23.841 101.157 23.5441 101.992 23.5441C102.521 23.531 103.043 23.6617 103.503 23.9221C103.449 24.4083 103.221 24.8587 102.862 25.191C102.505 25.521 102.041 25.7111 101.557 25.722L101.512 25.695ZM110.961 19.8L109.059 24.678H109.006L107.032 19.8H105.254L108.214 26.622L106.526 30.411H108.259L112.81 19.8H110.961ZM96.019 27H97.681V15.75H96.02L96.019 27Z" fill="white"/>
<path d="M43.1211 9.21595C43.1358 9.54532 43.0844 9.87432 42.9698 10.1835C42.8553 10.4926 42.6799 10.7757 42.4541 11.0159C42.2039 11.2811 41.9 11.4897 41.5626 11.6278C41.2253 11.766 40.8623 11.8304 40.4981 11.8169C39.9465 11.8119 39.409 11.6427 38.9541 11.3309C38.4958 11.0172 38.14 10.5755 37.9311 10.0609C37.7215 9.5444 37.6669 8.97799 37.7741 8.43095C37.8821 7.88295 38.1461 7.37995 38.5341 6.98395C38.7901 6.71995 39.0961 6.51195 39.4341 6.37295C39.7721 6.23295 40.1341 6.16595 40.4991 6.17395C40.8751 6.17295 41.2471 6.24895 41.5921 6.39895C41.9146 6.53091 42.2011 6.73758 42.4281 7.00195L41.9571 7.47895C41.7814 7.26524 41.5579 7.096 41.3045 6.98496C41.0512 6.87393 40.7752 6.82425 40.4991 6.83995C40.2206 6.83833 39.9447 6.89374 39.6885 7.00278C39.4322 7.11181 39.201 7.27216 39.0091 7.47395C38.8148 7.67633 38.6633 7.91573 38.5635 8.17789C38.4636 8.44005 38.4176 8.71962 38.4281 8.99995C38.4221 9.41995 38.5391 9.83095 38.7641 10.1839C38.9891 10.5359 39.3121 10.8129 39.6931 10.9789C40.0731 11.146 40.4946 11.1951 40.9029 11.1199C41.3112 11.0446 41.6875 10.8485 41.9831 10.5569C42.2571 10.2569 42.4151 9.86695 42.4281 9.45895H40.4981V8.81095H43.0861C43.1101 8.94495 43.1211 9.08095 43.1211 9.21595ZM47.1921 6.96595H44.7921V8.67595H46.9791V9.32395H44.7921V11.0339H47.1921V11.6999H44.0821V6.29995H47.1921V6.96595ZM50.1081 11.6999H49.4231V6.96595H47.9301V6.29995H51.6371V6.96595H50.1071L50.1081 11.6999ZM54.2501 11.6999V6.29995H54.9341V11.6999H54.2501ZM57.9741 11.6999H57.2901V6.96595H55.7971V6.29995H59.4591V6.96595H57.9741V11.6999ZM66.4011 10.9979C66.1452 11.2564 65.8407 11.4616 65.5052 11.6018C65.1697 11.7421 64.8097 11.8145 64.4461 11.8149C64.0822 11.8146 63.7221 11.7422 63.3864 11.602C63.0507 11.4618 62.746 11.2565 62.4901 10.9979C61.9839 10.4542 61.7027 9.73881 61.7031 8.99595C61.7031 8.25095 61.9851 7.53395 62.4901 6.99295C62.7454 6.73304 63.0497 6.52639 63.3855 6.38494C63.7213 6.2435 64.0817 6.17008 64.4461 6.16895C64.8105 6.16865 65.1712 6.24142 65.507 6.38295C65.8428 6.52448 66.1468 6.7319 66.4011 6.99295C66.9081 7.53295 67.1911 8.24995 67.1911 8.99595C67.1911 9.74095 66.9081 10.4579 66.4011 10.9979ZM62.9971 10.5479C63.1866 10.7397 63.4122 10.892 63.6609 10.996C63.9096 11.1 64.1765 11.1537 64.4461 11.1539C64.7155 11.1536 64.9822 11.0998 65.2307 10.9958C65.4792 10.8918 65.7047 10.7396 65.8941 10.5479C66.2753 10.1224 66.486 9.57123 66.486 8.99995C66.486 8.42866 66.2753 7.87746 65.8941 7.45195C65.7047 7.26032 65.4792 7.10811 65.2307 7.0041C64.9822 6.90009 64.7155 6.84634 64.4461 6.84595C64.1763 6.84607 63.9093 6.8997 63.6604 7.00371C63.4115 7.10773 63.1857 7.26008 62.9961 7.45195C62.616 7.8779 62.4062 8.42905 62.4071 8.99995C62.4071 9.57195 62.6171 10.1239 62.9971 10.5479ZM68.1521 11.6999V6.29995H68.9881L71.5831 10.5029V6.29995H72.2681V11.6999H71.5571L68.8461 7.29895V11.6999H68.1521Z" fill="white" stroke="white" stroke-width="0.2"/>
<path d="M10.25 6.78602C9.96 7.13802 9.814 7.58902 9.841 8.04602V27.954C9.814 28.411 9.961 28.862 10.25 29.214L10.312 29.277L21.325 18.135V17.874L10.312 6.72302L10.25 6.78602Z" fill="url(#paint0_linear_4_1389)"/>
<path d="M24.97 21.8519L21.326 18.1349V17.874L24.97 14.1479L25.05 14.1929L29.414 16.7039C30.659 17.4149 30.659 18.5849 29.414 19.3049L25.068 21.8069L24.97 21.8519Z" fill="url(#paint1_linear_4_1389)"/>
<path d="M25.0771 21.798L21.3261 18L10.2501 29.214C10.5028 29.4389 10.8266 29.5676 11.1647 29.5775C11.5029 29.5873 11.8337 29.4778 12.0991 29.268L25.0861 21.798" fill="url(#paint2_linear_4_1389)"/>
<path d="M25.077 14.2019L12.09 6.73194C11.8248 6.5218 11.4939 6.412 11.1557 6.42188C10.8174 6.43176 10.4935 6.56068 10.241 6.78594L21.326 17.9999L25.077 14.2019Z" fill="url(#paint3_linear_4_1389)"/>
<path opacity="0.2" d="M24.9701 21.717L12.0901 29.142C11.8342 29.3359 11.522 29.4408 11.2011 29.4408C10.8801 29.4408 10.5679 29.3359 10.3121 29.142L10.2501 29.205L10.3121 29.268C10.5673 29.4633 10.8797 29.5691 11.2011 29.5691C11.5224 29.5691 11.8348 29.4633 12.0901 29.268L25.0771 21.798L24.9701 21.717Z" fill="black"/>
<path opacity="0.12" d="M10.25 29.088C9.95979 28.7345 9.81372 28.2845 9.841 27.828V27.963C9.814 28.42 9.961 28.871 10.25 29.223L10.312 29.16L10.25 29.088ZM29.414 19.17L24.97 21.717L25.05 21.798L29.414 19.296C29.662 19.178 29.874 18.996 30.031 18.769C30.187 18.541 30.281 18.276 30.303 18C30.2547 18.2502 30.1494 18.4859 29.9952 18.6889C29.841 18.8918 29.6421 19.0564 29.414 19.17Z" fill="black"/>
<path opacity="0.25" d="M12.09 6.85794L29.414 16.8299C29.641 16.9429 29.839 17.1079 29.994 17.3099C30.147 17.5129 30.254 17.7499 30.304 17.9999C30.2816 17.7242 30.1875 17.4591 30.031 17.2309C29.8755 17.0039 29.6626 16.8221 29.414 16.7039L12.09 6.73194C10.846 6.02094 9.83203 6.61494 9.83203 8.05494V8.18994C9.85903 6.74094 10.854 6.14694 12.09 6.85794Z" fill="white"/>
</g>
<defs>
<linearGradient id="paint0_linear_4_1389" x1="16.849" y1="7.83902" x2="7.291" y2="17.279" gradientUnits="userSpaceOnUse">
<stop stop-color="#00A0FF"/>
<stop offset="0.01" stop-color="#00A1FF"/>
<stop offset="0.26" stop-color="#00BEFF"/>
<stop offset="0.51" stop-color="#00D2FF"/>
<stop offset="0.76" stop-color="#00DFFF"/>
<stop offset="1" stop-color="#00E3FF"/>
</linearGradient>
<linearGradient id="paint1_linear_4_1389" x1="31.041" y1="17.9999" x2="9.53905" y2="17.9999" gradientUnits="userSpaceOnUse">
<stop stop-color="#FFE000"/>
<stop offset="0.41" stop-color="#FFBD00"/>
<stop offset="0.78" stop-color="#FFA500"/>
<stop offset="1" stop-color="#FF9C00"/>
</linearGradient>
<linearGradient id="paint2_linear_4_1389" x1="23.0411" y1="21.579" x2="6.71206" y2="37.699" gradientUnits="userSpaceOnUse">
<stop stop-color="#FF3A44"/>
<stop offset="1" stop-color="#C31162"/>
</linearGradient>
<linearGradient id="paint3_linear_4_1389" x1="7.45903" y1="5.05094" x2="14.747" y2="12.2489" gradientUnits="userSpaceOnUse">
<stop stop-color="#32A071"/>
<stop offset="0.07" stop-color="#2DA771"/>
<stop offset="0.48" stop-color="#15CF74"/>
<stop offset="0.8" stop-color="#06E775"/>
<stop offset="1" stop-color="#00F076"/>
</linearGradient>
</defs>
</svg>
