<svg width="21" height="20" viewBox="0 0 21 20" fill="none" xmlns="http://www.w3.org/2000/svg">
<path d="M18.863 9.99999C18.863 5.39999 15.13 1.66699 10.53 1.66699C8.32022 1.66779 6.20115 2.54598 4.63858 4.10855C3.07601 5.67112 2.19782 7.79019 2.19702 9.99999C2.19702 14.033 5.06302 17.392 8.86302 18.167V12.5H7.19702V9.99999H8.86302V7.91699C8.86382 7.1436 9.1714 6.40211 9.71827 5.85524C10.2651 5.30837 11.0066 5.00079 11.78 4.99999H13.863V7.49999H12.197C11.9762 7.50052 11.7645 7.58842 11.6082 7.74449C11.452 7.90057 11.3638 8.11214 11.363 8.33299V9.99999H13.863V12.5H11.363V18.292C13.4187 18.0857 15.3245 17.123 16.7103 15.5907C18.0962 14.0585 18.8634 12.066 18.863 9.99999Z" fill="#2F3432"/>
</svg>
