<svg width="15" height="16" viewBox="0 0 15 16" fill="none" xmlns="http://www.w3.org/2000/svg">
<path d="M11.588 2.507C10.9804 1.8132 10.6457 0.922243 10.646 0H7.89903V11.022C7.87779 11.6184 7.62598 12.1833 7.1966 12.5977C6.76723 13.0122 6.1938 13.2439 5.59703 13.244C4.98485 13.2422 4.39827 12.9982 3.9653 12.5654C3.53233 12.1327 3.28814 11.5462 3.28603 10.934C3.28603 9.404 4.76103 8.258 6.28103 8.729V5.92C3.21403 5.511 0.530029 7.893 0.530029 10.933C0.530029 13.893 2.98303 16 5.58803 16C6.93065 15.9987 8.21776 15.4641 9.16629 14.5139C10.1148 13.5637 10.6471 12.2756 10.646 10.933V5.343C11.7598 6.14261 13.0969 6.57152 14.468 6.569V3.822C14.468 3.822 12.797 3.902 11.588 2.507Z" fill="#2F3432"/>
</svg>
