<svg width="19" height="14" viewBox="0 0 19 14" fill="none" xmlns="http://www.w3.org/2000/svg">
<path d="M17.915 2.78294C17.8153 2.41195 17.6199 2.07364 17.3484 1.80182C17.077 1.52999 16.7389 1.33418 16.368 1.23394C15.003 0.866943 9.53003 0.866943 9.53003 0.866943C9.53003 0.866943 4.05703 0.866943 2.69203 1.23194C2.32082 1.3318 1.98243 1.52761 1.71088 1.79969C1.43932 2.07178 1.24417 2.41054 1.14503 2.78194C0.780029 4.14694 0.780029 6.99994 0.780029 6.99994C0.780029 6.99994 0.780029 9.85194 1.14503 11.2169C1.2446 11.588 1.43992 11.9264 1.71142 12.1983C1.98292 12.4701 2.32108 12.6659 2.69203 12.7659C4.05703 13.1329 9.53003 13.1329 9.53003 13.1329C9.53003 13.1329 15.003 13.1329 16.368 12.7659C16.7392 12.6661 17.0776 12.4703 17.3492 12.1982C17.6207 11.9261 17.8159 11.5873 17.915 11.2159C18.28 9.85194 18.28 6.99994 18.28 6.99994C18.28 6.99994 18.28 4.14794 17.915 2.78294ZM7.79203 9.61694V4.38294L12.323 6.97994L7.79203 9.61694Z" fill="#2F3432"/>
</svg>
